<svg xmlns="http://www.w3.org/2000/svg" xmlns:xlink="http://www.w3.org/1999/xlink" viewBox="0 0 1252.117 758.322"><defs><style>.a,.f,.g,.i,.l,.n,.o,.p{fill:none;}.b{opacity:0.67;}.c{fill:#141936;}.d{fill:#1a1f3d;}.e{fill:#545977;}.f{stroke:#242a4e;}.g{stroke:#fcaa07;}.g,.i,.l,.p{stroke-width:2px;}.h{fill:#fcaa06;}.i{stroke:#0779fc;}.j{fill:#0781f6;}.k{fill:#06fcca;}.l{stroke:#07fcca;}.m{clip-path:url(#u);}.n{stroke:rgba(36,42,78,0.35);}.o{stroke:rgba(36,42,78,0.31);}.p{stroke:#087ff8;}.q{filter:url(#am);}.r{filter:url(#ak);}.s{filter:url(#ai);}.t{filter:url(#ag);}.u{filter:url(#ae);}.v{filter:url(#ac);}.w{filter:url(#z);}.x{filter:url(#x);}.y{filter:url(#v);}.z{filter:url(#s);}.aa{filter:url(#q);}.ab{filter:url(#o);}.ac{filter:url(#m);}.ad{filter:url(#k);}.ae{filter:url(#i);}.af{filter:url(#g);}.ag{filter:url(#e);}.ah{filter:url(#c);}.ai{filter:url(#a);}</style><filter id="a" x="0" y="0" width="1235.187" height="758.322" filterUnits="userSpaceOnUse"><feOffset dy="3" input="SourceAlpha"/><feGaussianBlur stdDeviation="3" result="b"/><feFlood flood-opacity="0.161"/><feComposite operator="in" in2="b"/><feComposite in="SourceGraphic"/></filter><filter id="c" x="0" y="0" width="1235.187" height="97.045" filterUnits="userSpaceOnUse"><feOffset dy="3" input="SourceAlpha"/><feGaussianBlur stdDeviation="3" result="d"/><feFlood flood-opacity="0.161"/><feComposite operator="in" in2="d"/><feComposite in="SourceGraphic"/></filter><filter id="e" x="619.286" y="159.054" width="581.149" height="315.864" filterUnits="userSpaceOnUse"><feOffset dy="3" input="SourceAlpha"/><feGaussianBlur stdDeviation="3" result="f"/><feFlood flood-opacity="0.161"/><feComposite operator="in" in2="f"/><feComposite in="SourceGraphic"/></filter><filter id="g" x="35.642" y="159.054" width="581.149" height="315.864" filterUnits="userSpaceOnUse"><feOffset dy="3" input="SourceAlpha"/><feGaussianBlur stdDeviation="3" result="h"/><feFlood flood-opacity="0.161"/><feComposite operator="in" in2="h"/><feComposite in="SourceGraphic"/></filter><filter id="i" x="441.965" y="479.088" width="403.829" height="159.702" filterUnits="userSpaceOnUse"><feOffset dy="3" input="SourceAlpha"/><feGaussianBlur stdDeviation="3" result="j"/><feFlood flood-opacity="0.161"/><feComposite operator="in" in2="j"/><feComposite in="SourceGraphic"/></filter><filter id="k" x="620.728" y="525.914" width="199.451" height="72.005" filterUnits="userSpaceOnUse"><feOffset input="SourceAlpha"/><feGaussianBlur stdDeviation="1" result="l"/><feFlood flood-color="#ffa813"/><feComposite operator="in" in2="l"/><feComposite in="SourceGraphic"/></filter><filter id="m" x="848.288" y="479.088" width="403.829" height="159.702" filterUnits="userSpaceOnUse"><feOffset dy="3" input="SourceAlpha"/><feGaussianBlur stdDeviation="3" result="n"/><feFlood flood-opacity="0.161"/><feComposite operator="in" in2="n"/><feComposite in="SourceGraphic"/></filter><filter id="o" x="1027.051" y="525.914" width="199.451" height="72.005" filterUnits="userSpaceOnUse"><feOffset input="SourceAlpha"/><feGaussianBlur stdDeviation="1" result="p"/><feFlood flood-color="#13c6ff"/><feComposite operator="in" in2="p"/><feComposite in="SourceGraphic"/></filter><filter id="q" x="35.642" y="479.088" width="403.828" height="159.702" filterUnits="userSpaceOnUse"><feOffset dy="3" input="SourceAlpha"/><feGaussianBlur stdDeviation="3" result="r"/><feFlood flood-opacity="0.161"/><feComposite operator="in" in2="r"/><feComposite in="SourceGraphic"/></filter><filter id="s" x="214.405" y="525.914" width="199.451" height="72.005" filterUnits="userSpaceOnUse"><feOffset input="SourceAlpha"/><feGaussianBlur stdDeviation="1" result="t"/><feFlood flood-color="#13ffcf"/><feComposite operator="in" in2="t"/><feComposite in="SourceGraphic"/></filter><clipPath id="u"><rect class="a" width="463.351" height="246.774"/></clipPath><filter id="v" x="74.835" y="186.853" width="500.515" height="156.623" filterUnits="userSpaceOnUse"><feOffset input="SourceAlpha"/><feGaussianBlur stdDeviation="1" result="w"/><feFlood flood-color="#07fcca"/><feComposite operator="in" in2="w"/><feComposite in="SourceGraphic"/></filter><filter id="x" x="103.439" y="187.49" width="469.855" height="240.559" filterUnits="userSpaceOnUse"><feOffset input="SourceAlpha"/><feGaussianBlur stdDeviation="1" result="y"/><feFlood flood-color="#fcaa07"/><feComposite operator="in" in2="y"/><feComposite in="SourceGraphic"/></filter><filter id="z" x="109.181" y="187.076" width="465.272" height="238.226" filterUnits="userSpaceOnUse"><feOffset input="SourceAlpha"/><feGaussianBlur stdDeviation="1" result="aa"/><feFlood flood-color="#0a7ff5"/><feComposite operator="in" in2="aa"/><feComposite in="SourceGraphic"/></filter><filter id="ac" x="659.88" y="252.083" width="502.49" height="185.882" filterUnits="userSpaceOnUse"><feOffset input="SourceAlpha"/><feGaussianBlur stdDeviation="1" result="ad"/><feFlood flood-color="#07fcca"/><feComposite operator="in" in2="ad"/><feComposite in="SourceGraphic"/></filter><filter id="ae" x="657.065" y="186.478" width="499.873" height="141.081" filterUnits="userSpaceOnUse"><feOffset input="SourceAlpha"/><feGaussianBlur stdDeviation="1" result="af"/><feFlood flood-color="#fcaa07"/><feComposite operator="in" in2="af"/><feComposite in="SourceGraphic"/></filter><filter id="ag" x="657.023" y="294.671" width="502.865" height="145.859" filterUnits="userSpaceOnUse"><feOffset input="SourceAlpha"/><feGaussianBlur stdDeviation="1" result="ah"/><feFlood flood-color="#0a7ff5"/><feComposite operator="in" in2="ah"/><feComposite in="SourceGraphic"/></filter><filter id="ai" x="793.053" y="181.327" width="241.46" height="256.907" filterUnits="userSpaceOnUse"><feOffset input="SourceAlpha"/><feGaussianBlur stdDeviation="7" result="aj"/><feFlood flood-color="#0a7af8"/><feComposite operator="in" in2="aj"/><feComposite in="SourceGraphic"/></filter><filter id="ak" x="805.808" y="208.274" width="215.951" height="201.907" filterUnits="userSpaceOnUse"><feOffset input="SourceAlpha"/><feGaussianBlur stdDeviation="7" result="al"/><feFlood flood-color="#f7a607"/><feComposite operator="in" in2="al"/><feComposite in="SourceGraphic"/></filter><filter id="am" x="845.473" y="215.725" width="136.844" height="188.112" filterUnits="userSpaceOnUse"><feOffset input="SourceAlpha"/><feGaussianBlur stdDeviation="7" result="an"/><feFlood flood-color="#07fcca"/><feComposite operator="in" in2="an"/><feComposite in="SourceGraphic"/></filter></defs><g transform="translate(-57.31 -553.794)"><g class="b" transform="translate(3.247 -49.433)"><g transform="translate(63.064 609.228)"><g class="ai" transform="matrix(1, 0, 0, 1, -9, -6)"><rect class="c" width="1217.187" height="740.322" transform="translate(9 6)"/></g><g class="ah" transform="matrix(1, 0, 0, 1, -9, -6)"><rect class="d" width="1217.187" height="79.045" transform="translate(9 6)"/></g><rect class="e" width="49.008" height="12.531" rx="6.266" transform="translate(1133.427 33.739)"/><rect class="e" width="109.6" height="12.531" rx="6.266" transform="translate(35.642 123.387)"/><rect class="e" width="109.6" height="12.531" rx="6.266" transform="translate(619.286 123.387)"/><rect class="e" width="49.008" height="12.531" rx="6.266" transform="translate(106.036 33.739)"/><rect class="e" width="49.008" height="12.531" rx="6.266" transform="translate(176.43 33.739)"/><rect class="e" width="49.008" height="12.531" rx="6.266" transform="translate(246.823 33.739)"/><rect class="e" width="19.603" height="12.531" rx="6.266" transform="translate(1091.547 33.739)"/><rect class="e" width="19.603" height="12.531" rx="6.266" transform="translate(1049.667 33.739)"/><g class="ag" transform="matrix(1, 0, 0, 1, -9, -6)"><rect class="d" width="563.149" height="297.864" rx="10" transform="translate(628.29 165.05)"/></g><g class="af" transform="matrix(1, 0, 0, 1, -9, -6)"><rect class="d" width="563.149" height="297.864" rx="10" transform="translate(44.64 165.05)"/></g><g transform="translate(441.965 479.088)"><g class="ae" transform="matrix(1, 0, 0, 1, -450.97, -485.09)"><rect class="d" width="385.829" height="141.702" rx="10" transform="translate(450.97 485.09)"/></g><g transform="translate(161.727 27.473)"><line class="f" x2="204.053"/><line class="f" x2="204.053" transform="translate(0 16.387)"/><line class="f" x2="204.053" transform="translate(0 32.775)"/><line class="f" x2="204.053" transform="translate(0 49.162)"/><line class="f" x2="204.053" transform="translate(0 65.549)"/><line class="f" x2="204.053" transform="translate(0 81.937)"/></g><g class="ad" transform="matrix(1, 0, 0, 1, -450.97, -485.09)"><path class="g" d="M234.9,855.06s19.777-42.6,38.731-48.776,20.087,24.07,37.083,24.07,10.919-25.964,30.9-24.07,27.812,35.771,49.032,31.648c8.106-1.575,15.25-8.972,21.114-17.707,9.146-13.622,14.732-30.433,14.732-30.433" transform="translate(389.73 -260.56)"/></g><rect class="e" width="84.651" height="12.531" rx="6.266" transform="translate(24.95 97.36)"/><rect class="e" width="46.335" height="12.531" rx="6.266" transform="translate(24.95 75.189)"/><rect class="h" width="84.651" height="30.847" rx="10" transform="translate(24.95 17.351)"/></g><g transform="translate(848.288 479.088)"><g class="ac" transform="matrix(1, 0, 0, 1, -857.29, -485.09)"><rect class="d" width="385.829" height="141.702" rx="10" transform="translate(857.29 485.09)"/></g><g transform="translate(161.727 27.473)"><line class="f" x2="204.053"/><line class="f" x2="204.053" transform="translate(0 16.387)"/><line class="f" x2="204.053" transform="translate(0 32.775)"/><line class="f" x2="204.053" transform="translate(0 49.162)"/><line class="f" x2="204.053" transform="translate(0 65.549)"/><line class="f" x2="204.053" transform="translate(0 81.937)"/></g><g class="ab" transform="matrix(1, 0, 0, 1, -857.29, -485.09)"><path class="i" d="M234.9,855.06s19.777-42.6,38.731-48.776,20.087,24.07,37.083,24.07,10.919-25.964,30.9-24.07,27.812,35.771,49.032,31.648c8.106-1.575,15.25-8.972,21.114-17.707,9.146-13.622,14.732-30.433,14.732-30.433" transform="translate(796.06 -260.56)"/></g><rect class="e" width="84.651" height="12.531" rx="6.266" transform="translate(24.95 101.216)"/><rect class="e" width="46.335" height="12.531" rx="6.266" transform="translate(24.95 79.045)"/><rect class="j" width="84.651" height="30.847" rx="10" transform="translate(24.95 21.207)"/></g><g transform="translate(35.642 479.088)"><g class="aa" transform="matrix(1, 0, 0, 1, -44.64, -485.09)"><rect class="d" width="385.829" height="141.702" rx="10" transform="translate(44.64 485.09)"/></g><rect class="e" width="84.651" height="12.531" rx="6.266" transform="translate(24.95 101.216)"/><rect class="e" width="46.335" height="12.531" rx="6.266" transform="translate(24.95 79.045)"/><rect class="k" width="84.651" height="30.847" rx="10" transform="translate(24.95 21.207)"/><g transform="translate(161.727 27.473)"><line class="f" x2="204.053"/><line class="f" x2="204.053" transform="translate(0 16.387)"/><line class="f" x2="204.053" transform="translate(0 32.775)"/><line class="f" x2="204.053" transform="translate(0 49.162)"/><line class="f" x2="204.053" transform="translate(0 65.549)"/><line class="f" x2="204.053" transform="translate(0 81.937)"/></g><g class="z" transform="matrix(1, 0, 0, 1, -44.64, -485.09)"><path class="l" d="M234.9,855.06s19.777-42.6,38.731-48.776,20.087,24.07,37.083,24.07,10.919-25.964,30.9-24.07,27.812,35.771,49.032,31.648c8.106-1.575,15.25-8.972,21.114-17.707,9.146-13.622,14.732-30.433,14.732-30.433" transform="translate(-16.59 -260.56)"/></g></g><g transform="translate(69.503 184.348)"><g transform="translate(0 0.251)"><g transform="translate(0.446)"><line class="f" y2="245.81" transform="translate(0 0.964)"/><g transform="translate(15.148)"><g class="m"><g transform="translate(-96.5 -190.5)"><line class="n" y2="255" transform="translate(96.5 190.5)"/><line class="n" y2="255" transform="translate(113.5 190.5)"/><line class="n" y2="255" transform="translate(130.5 191.5)"/><line class="n" y2="255" transform="translate(147.5 190.5)"/><line class="n" y2="255" transform="translate(164.5 190.5)"/></g><g transform="translate(-11.5 -190.5)"><line class="n" y2="255" transform="translate(96.5 190.5)"/><line class="n" y2="255" transform="translate(113.5 190.5)"/><line class="n" y2="255" transform="translate(130.5 191.5)"/><line class="n" y2="255" transform="translate(147.5 190.5)"/><line class="n" y2="255" transform="translate(164.5 190.5)"/></g><g transform="translate(73.5 -190.5)"><line class="n" y2="255" transform="translate(96.5 190.5)"/><line class="n" y2="255" transform="translate(113.5 190.5)"/><line class="n" y2="255" transform="translate(130.5 191.5)"/><line class="n" y2="255" transform="translate(147.5 190.5)"/><line class="n" y2="255" transform="translate(164.5 190.5)"/></g><g transform="translate(158.5 -190.5)"><line class="n" y2="255" transform="translate(96.5 190.5)"/><line class="n" y2="255" transform="translate(113.5 190.5)"/><line class="n" y2="255" transform="translate(130.5 191.5)"/><line class="n" y2="255" transform="translate(147.5 190.5)"/><line class="n" y2="255" transform="translate(164.5 190.5)"/></g><g transform="translate(243.5 -190.5)"><line class="n" y2="255" transform="translate(96.5 190.5)"/><line class="n" y2="255" transform="translate(113.5 190.5)"/><line class="n" y2="255" transform="translate(130.5 191.5)"/><line class="n" y2="255" transform="translate(147.5 190.5)"/><line class="n" y2="255" transform="translate(164.5 190.5)"/></g><g transform="translate(328.5 -190.5)"><line class="n" y2="255" transform="translate(96.5 190.5)"/><line class="n" y2="255" transform="translate(113.5 190.5)"/><line class="n" y2="255" transform="translate(130.5 191.5)"/><line class="n" y2="255" transform="translate(147.5 190.5)"/><line class="n" y2="255" transform="translate(164.5 190.5)"/></g></g></g></g><g transform="translate(0 0.482)"><line class="f" x1="494.538" transform="translate(0.891 245.81)"/><line class="o" x1="494.538" transform="translate(0.891 229.423)"/><line class="o" x1="494.538" transform="translate(0.891 213.035)"/><line class="o" x1="494.538" transform="translate(0 196.648)"/><line class="o" x1="494.538" transform="translate(0 180.261)"/><line class="o" x1="494.538" transform="translate(0 163.873)"/><line class="o" x1="494.538" transform="translate(0 147.486)"/><line class="o" x1="494.538" transform="translate(0 131.099)"/><line class="o" x1="494.538" transform="translate(0 114.711)"/><line class="o" x1="494.538" transform="translate(0 98.324)"/><line class="o" x1="494.538" transform="translate(0.891 81.937)"/><line class="o" x1="494.538" transform="translate(0.891 65.549)"/><line class="o" x1="494.538" transform="translate(0.891 49.162)"/><line class="o" x1="494.538" transform="translate(0.891 32.775)"/><line class="o" x1="494.538" transform="translate(0.891 16.387)"/><line class="o" x1="494.538" transform="translate(0.891)"/></g></g><g class="y" transform="matrix(1, 0, 0, 1, -78.5, -190.35)"><path class="l" d="M78,438.5s55.89,50.049,76.58,83.283S177.621,582.826,215.4,586.9s42.633-15.6,90.283-48.835,82.759-20.348,105.957-16.278,56.74,31.878,90.91,31.878,28.684-27.978,45.768-31.878,22.571,16.278,22.571,16.278" transform="translate(0.5 -247.9)"/></g><g class="x" transform="matrix(1, 0, 0, 1, -78.5, -190.35)"><path class="g" d="M110.468,438.5s15.674,143.175,46.4,196.552,56.427,39.339,76.489,16.956,29.467-132.26,106.584-147.182,65.2-13.565,90.91-33.235,68.339,111.234,142.32,99.026" transform="translate(-3.03 -247.9)"/></g><g class="w" transform="matrix(1, 0, 0, 1, -78.5, -190.35)"><path class="p" d="M142.254,438.24S97,598.622,127.718,652c17.6,30.585,55.918,17.521,74.664-17.19,13.858-25.66,68.079-7.6,76.646-17.155,20.063-22.383,15.387-147.338,92.5-162.259s67.4,87.336,105.058,115.213,24.469-103,98.45-115.213" transform="translate(-3.75 -247.89)"/></g></g><g transform="translate(651.096 184.494)"><g transform="translate(2.05 0.104)"><g transform="translate(0.446)"><line class="f" y2="245.81" transform="translate(0 0.964)"/><g transform="translate(15.148)"><g class="m"><g transform="translate(-96.5 -190.5)"><line class="n" y2="255" transform="translate(96.5 190.5)"/><line class="n" y2="255" transform="translate(113.5 190.5)"/><line class="n" y2="255" transform="translate(130.5 191.5)"/><line class="n" y2="255" transform="translate(147.5 190.5)"/><line class="n" y2="255" transform="translate(164.5 190.5)"/></g><g transform="translate(-11.5 -190.5)"><line class="n" y2="255" transform="translate(96.5 190.5)"/><line class="n" y2="255" transform="translate(113.5 190.5)"/><line class="n" y2="255" transform="translate(130.5 191.5)"/><line class="n" y2="255" transform="translate(147.5 190.5)"/><line class="n" y2="255" transform="translate(164.5 190.5)"/></g><g transform="translate(73.5 -190.5)"><line class="n" y2="255" transform="translate(96.5 190.5)"/><line class="n" y2="255" transform="translate(113.5 190.5)"/><line class="n" y2="255" transform="translate(130.5 191.5)"/><line class="n" y2="255" transform="translate(147.5 190.5)"/><line class="n" y2="255" transform="translate(164.5 190.5)"/></g><g transform="translate(158.5 -190.5)"><line class="n" y2="255" transform="translate(96.5 190.5)"/><line class="n" y2="255" transform="translate(113.5 190.5)"/><line class="n" y2="255" transform="translate(130.5 191.5)"/><line class="n" y2="255" transform="translate(147.5 190.5)"/><line class="n" y2="255" transform="translate(164.5 190.5)"/></g><g transform="translate(243.5 -190.5)"><line class="n" y2="255" transform="translate(96.5 190.5)"/><line class="n" y2="255" transform="translate(113.5 190.5)"/><line class="n" y2="255" transform="translate(130.5 191.5)"/><line class="n" y2="255" transform="translate(147.5 190.5)"/><line class="n" y2="255" transform="translate(164.5 190.5)"/></g><g transform="translate(328.5 -190.5)"><line class="n" y2="255" transform="translate(96.5 190.5)"/><line class="n" y2="255" transform="translate(113.5 190.5)"/><line class="n" y2="255" transform="translate(130.5 191.5)"/><line class="n" y2="255" transform="translate(147.5 190.5)"/><line class="n" y2="255" transform="translate(164.5 190.5)"/></g></g></g></g><g transform="translate(0 0.482)"><line class="f" x1="494.538" transform="translate(0.891 245.81)"/><line class="o" x1="494.538" transform="translate(0.891 229.423)"/><line class="o" x1="494.538" transform="translate(0.891 213.035)"/><line class="o" x1="494.538" transform="translate(0 196.648)"/><line class="o" x1="494.538" transform="translate(0 180.261)"/><line class="o" x1="494.538" transform="translate(0 163.873)"/><line class="o" x1="494.538" transform="translate(0 147.486)"/><line class="o" x1="494.538" transform="translate(0 131.099)"/><line class="o" x1="494.538" transform="translate(0 114.711)"/><line class="o" x1="494.538" transform="translate(0 98.324)"/><line class="o" x1="494.538" transform="translate(0.891 81.937)"/><line class="o" x1="494.538" transform="translate(0.891 65.549)"/><line class="o" x1="494.538" transform="translate(0.891 49.162)"/><line class="o" x1="494.538" transform="translate(0.891 32.775)"/><line class="o" x1="494.538" transform="translate(0.891 16.387)"/><line class="o" x1="494.538" transform="translate(0.891)"/></g></g><g class="v" transform="matrix(1, 0, 0, 1, -660.1, -190.49)"><path class="l" d="M79.731,684.709s79.893-109.986,100.583-76.752,49.338-4.07,87.112,0S323.952,629.534,371.6,596.3s60.322-4.07,83.52,0,13.441-40.208,47.611-40.208,28.683-27.978,45.768-31.878,26.063-18.268,26.063-18.268" transform="translate(583.96 -250.33)"/></g><g class="u" transform="matrix(1, 0, 0, 1, -660.1, -190.49)"><path class="g" d="M75.7,438.419s91.415-2.857,122.137,50.52,35.617,9.752,55.68-12.63,41.311,43.719,79.928,37.89,29.636-11.659,87.112-32.061S495.4,582.823,569.378,570.614" transform="translate(584.4 -247.9)"/></g><g class="t" transform="matrix(1, 0, 0, 1, -660.1, -190.49)"><path class="p" d="M76.707,689.232s26.942-109.784,74.539-136.987c61.966,21.374,29.636,56.349,182.307,0,61.068-16.516,34.126,95.211,109.564,64.122s55.34-51.913,129.321-64.122" transform="translate(584.29 -251.94)"/></g></g><g transform="translate(805.053 196.327)"><g class="s" transform="matrix(1, 0, 0, 1, -814.05, -202.33)"><path class="a" d="M99.73,214.907a92.99,92.99,0,0,1-38.82-8.444,99.339,99.339,0,0,1-31.7-23.028A107.912,107.912,0,0,1,7.837,149.279a115.527,115.527,0,0,1,0-83.652A107.913,107.913,0,0,1,29.21,31.472a99.341,99.341,0,0,1,31.7-23.028,93.451,93.451,0,0,1,77.639,0,99.343,99.343,0,0,1,31.7,23.028,107.914,107.914,0,0,1,21.373,34.155,115.523,115.523,0,0,1,0,83.652,107.914,107.914,0,0,1-21.373,34.156,99.342,99.342,0,0,1-31.7,23.028A92.989,92.989,0,0,1,99.73,214.907Zm0-153.255c-23.439,0-42.508,20.546-42.508,45.8s19.069,45.8,42.508,45.8,42.508-20.546,42.508-45.8S123.169,61.653,99.73,61.653Z" transform="translate(814.05 202.33)"/></g><g class="r" transform="matrix(1, 0, 0, 1, -814.05, -202.33)"><path class="a" d="M86.975,159.907a93.029,93.029,0,0,1-33.855-6.283,87.474,87.474,0,0,1-27.646-17.135A79.676,79.676,0,0,1,6.835,111.075a74.271,74.271,0,0,1,0-62.243A79.677,79.677,0,0,1,25.474,23.418,87.476,87.476,0,0,1,53.121,6.283a94.349,94.349,0,0,1,67.709,0,87.477,87.477,0,0,1,27.646,17.135,79.678,79.678,0,0,1,18.64,25.414,74.269,74.269,0,0,1,0,62.243,79.678,79.678,0,0,1-18.64,25.414,87.475,87.475,0,0,1-27.646,17.135A93.027,93.027,0,0,1,86.975,159.907Zm0-114.033C66.534,45.874,49.9,61.162,49.9,79.953s16.63,34.079,37.072,34.079,37.072-15.288,37.072-34.079S107.417,45.874,86.975,45.874Z" transform="translate(826.81 229.27)"/></g><g class="q" transform="matrix(1, 0, 0, 1, -814.05, -202.33)"><path class="a" d="M47.422,146.112a33.453,33.453,0,0,1-18.459-5.741,52.4,52.4,0,0,1-15.074-15.657A82.8,82.8,0,0,1,3.727,101.492,107.435,107.435,0,0,1,0,73.055,107.431,107.431,0,0,1,3.727,44.619,82.8,82.8,0,0,1,13.889,21.4,52.4,52.4,0,0,1,28.963,5.741,33.453,33.453,0,0,1,47.422,0,33.453,33.453,0,0,1,65.88,5.741,52.4,52.4,0,0,1,80.954,21.4,82.8,82.8,0,0,1,91.117,44.619a107.43,107.43,0,0,1,3.727,28.436,107.434,107.434,0,0,1-3.727,28.437,82.8,82.8,0,0,1-10.163,23.222A52.4,52.4,0,0,1,65.88,140.37,33.452,33.452,0,0,1,47.422,146.112Zm0-104.2c-11.145,0-20.213,13.969-20.213,31.139s9.067,31.139,20.213,31.139S67.635,90.225,67.635,73.055,58.567,41.916,47.422,41.916Z" transform="translate(866.47 236.73)"/></g></g></g><rect class="e" width="52.168" height="46.817" rx="10" transform="translate(654.214 624.975)"/></g></g></svg>