<svg xmlns="http://www.w3.org/2000/svg" xmlns:xlink="http://www.w3.org/1999/xlink" viewBox="0 0 393 830"><defs><style>.a,.o,.p,.r,.t,.v,.w,.x,.z{fill:none;}.b{fill:#1a1f3d;}.c{fill:#1c213f;}.aa,.d,.g{fill:#06fcca;}.e,.f,.h,.i{fill:#fff;}.e{font-size:11px;}.aa,.ab,.e,.f,.g,.i,.j{font-family:SegoeUI-Bold, Segoe UI;font-weight:700;}.f{font-size:9px;}.g{font-size:5px;}.h{font-size:23px;font-family:SegoeUI, Segoe UI;}.i{font-size:24px;}.j,.n{fill:#545977;}.j{font-size:7px;}.k{fill:#1184ff;}.l{opacity:0.67;}.m{fill:#141936;}.o{stroke:#242a4e;}.p{stroke:#fcaa07;}.p,.r,.t,.x,.z{stroke-width:2px;}.q{fill:#fcaa06;}.r{stroke:#0779fc;}.s{fill:#0781f6;}.t{stroke:#07fcca;}.u{clip-path:url(#aa);}.v{stroke:rgba(36,42,78,0.35);}.w{stroke:rgba(36,42,78,0.31);}.x{stroke:#087ff8;}.ab,.y{fill:#424765;}.z{stroke:#4d5165;}.aa,.ab{font-size:6px;}.ac{filter:url(#au);}.ad{filter:url(#as);}.ae{filter:url(#aq);}.af{filter:url(#ao);}.ag{filter:url(#am);}.ah{filter:url(#ak);}.ai{filter:url(#ai);}.aj{filter:url(#af);}.ak{filter:url(#ad);}.al{filter:url(#ab);}.am{filter:url(#y);}.an{filter:url(#w);}.ao{filter:url(#u);}.ap{filter:url(#s);}.aq{filter:url(#q);}.ar{filter:url(#o);}.as{filter:url(#m);}.at{filter:url(#k);}.au{filter:url(#i);}.av{filter:url(#g);}.aw{filter:url(#e);}.ax{filter:url(#c);}.ay{filter:url(#a);}</style><filter id="a" x="0" y="0" width="393" height="830" filterUnits="userSpaceOnUse"><feOffset dy="3" input="SourceAlpha"/><feGaussianBlur stdDeviation="3" result="b"/><feFlood flood-opacity="0.161"/><feComposite operator="in" in2="b"/><feComposite in="SourceGraphic"/></filter><filter id="c" x="23.201" y="301.496" width="115.64" height="43.57" filterUnits="userSpaceOnUse"><feOffset input="SourceAlpha"/><feGaussianBlur stdDeviation="1.5" result="d"/><feFlood flood-opacity="0.702"/><feComposite operator="in" in2="d"/><feComposite in="SourceGraphic"/></filter><filter id="e" x="143.513" y="301.496" width="115.64" height="43.57" filterUnits="userSpaceOnUse"><feOffset input="SourceAlpha"/><feGaussianBlur stdDeviation="1.5" result="f"/><feFlood flood-opacity="0.702"/><feComposite operator="in" in2="f"/><feComposite in="SourceGraphic"/></filter><filter id="g" x="22.153" y="370.387" width="343.904" height="216.223" filterUnits="userSpaceOnUse"><feOffset dy="3" input="SourceAlpha"/><feGaussianBlur stdDeviation="3" result="h"/><feFlood flood-opacity="0.161"/><feComposite operator="in" in2="h"/><feComposite in="SourceGraphic"/></filter><filter id="i" x="22.153" y="370.387" width="343.904" height="39.164" filterUnits="userSpaceOnUse"><feOffset dy="3" input="SourceAlpha"/><feGaussianBlur stdDeviation="3" result="j"/><feFlood flood-opacity="0.161"/><feComposite operator="in" in2="j"/><feComposite in="SourceGraphic"/></filter><filter id="k" x="187.968" y="412.974" width="168.784" height="97.754" filterUnits="userSpaceOnUse"><feOffset dy="3" input="SourceAlpha"/><feGaussianBlur stdDeviation="3" result="l"/><feFlood flood-opacity="0.161"/><feComposite operator="in" in2="l"/><feComposite in="SourceGraphic"/></filter><filter id="m" x="31.696" y="412.974" width="168.784" height="97.754" filterUnits="userSpaceOnUse"><feOffset dy="3" input="SourceAlpha"/><feGaussianBlur stdDeviation="3" result="n"/><feFlood flood-opacity="0.161"/><feComposite operator="in" in2="n"/><feComposite in="SourceGraphic"/></filter><filter id="o" x="140.49" y="498.664" width="121.306" height="55.941" filterUnits="userSpaceOnUse"><feOffset dy="3" input="SourceAlpha"/><feGaussianBlur stdDeviation="3" result="p"/><feFlood flood-opacity="0.161"/><feComposite operator="in" in2="p"/><feComposite in="SourceGraphic"/></filter><filter id="q" x="192.083" y="513.167" width="59.156" height="24.212" filterUnits="userSpaceOnUse"><feOffset input="SourceAlpha"/><feGaussianBlur stdDeviation="1" result="r"/><feFlood flood-color="#ffa813"/><feComposite operator="in" in2="r"/><feComposite in="SourceGraphic"/></filter><filter id="s" x="249.284" y="498.664" width="121.306" height="55.941" filterUnits="userSpaceOnUse"><feOffset dy="3" input="SourceAlpha"/><feGaussianBlur stdDeviation="3" result="t"/><feFlood flood-opacity="0.161"/><feComposite operator="in" in2="t"/><feComposite in="SourceGraphic"/></filter><filter id="u" x="300.877" y="513.167" width="59.156" height="24.212" filterUnits="userSpaceOnUse"><feOffset input="SourceAlpha"/><feGaussianBlur stdDeviation="1" result="v"/><feFlood flood-color="#13c6ff"/><feComposite operator="in" in2="v"/><feComposite in="SourceGraphic"/></filter><filter id="w" x="31.696" y="498.664" width="121.306" height="55.941" filterUnits="userSpaceOnUse"><feOffset dy="3" input="SourceAlpha"/><feGaussianBlur stdDeviation="3" result="x"/><feFlood flood-opacity="0.161"/><feComposite operator="in" in2="x"/><feComposite in="SourceGraphic"/></filter><filter id="y" x="83.29" y="513.167" width="59.156" height="24.212" filterUnits="userSpaceOnUse"><feOffset input="SourceAlpha"/><feGaussianBlur stdDeviation="1" result="z"/><feFlood flood-color="#13ffcf"/><feComposite operator="in" in2="z"/><feComposite in="SourceGraphic"/></filter><clipPath id="aa"><rect class="a" width="124.063" height="66.074"/></clipPath><filter id="ab" x="46.095" y="422.069" width="139.602" height="47.607" filterUnits="userSpaceOnUse"><feOffset input="SourceAlpha"/><feGaussianBlur stdDeviation="1" result="ac"/><feFlood flood-color="#07fcca"/><feComposite operator="in" in2="ac"/><feComposite in="SourceGraphic"/></filter><filter id="ad" x="53.515" y="422.705" width="131.045" height="69.616" filterUnits="userSpaceOnUse"><feOffset input="SourceAlpha"/><feGaussianBlur stdDeviation="1" result="ae"/><feFlood flood-color="#fcaa07"/><feComposite operator="in" in2="ae"/><feComposite in="SourceGraphic"/></filter><filter id="af" x="55.053" y="422.475" width="129.817" height="69.158" filterUnits="userSpaceOnUse"><feOffset input="SourceAlpha"/><feGaussianBlur stdDeviation="1" result="ag"/><feFlood flood-color="#0a7ff5"/><feComposite operator="in" in2="ag"/><feComposite in="SourceGraphic"/></filter><filter id="ai" x="202.638" y="439.69" width="140.15" height="54.983" filterUnits="userSpaceOnUse"><feOffset input="SourceAlpha"/><feGaussianBlur stdDeviation="1" result="aj"/><feFlood flood-color="#07fcca"/><feComposite operator="in" in2="aj"/><feComposite in="SourceGraphic"/></filter><filter id="ak" x="202.454" y="421.772" width="138.377" height="43.643" filterUnits="userSpaceOnUse"><feOffset input="SourceAlpha"/><feGaussianBlur stdDeviation="1" result="al"/><feFlood flood-color="#fcaa07"/><feComposite operator="in" in2="al"/><feComposite in="SourceGraphic"/></filter><filter id="am" x="201.754" y="450.747" width="139.867" height="44.358" filterUnits="userSpaceOnUse"><feOffset input="SourceAlpha"/><feGaussianBlur stdDeviation="1" result="an"/><feFlood flood-color="#0a7ff5"/><feComposite operator="in" in2="an"/><feComposite in="SourceGraphic"/></filter><filter id="ao" x="225.707" y="407.954" width="95.406" height="99.542" filterUnits="userSpaceOnUse"><feOffset input="SourceAlpha"/><feGaussianBlur stdDeviation="7" result="ap"/><feFlood flood-color="#0a7af8"/><feComposite operator="in" in2="ap"/><feComposite in="SourceGraphic"/></filter><filter id="aq" x="229.123" y="415.169" width="88.576" height="84.815" filterUnits="userSpaceOnUse"><feOffset input="SourceAlpha"/><feGaussianBlur stdDeviation="7" result="ar"/><feFlood flood-color="#f7a607"/><feComposite operator="in" in2="ar"/><feComposite in="SourceGraphic"/></filter><filter id="as" x="239.743" y="417.164" width="67.395" height="81.122" filterUnits="userSpaceOnUse"><feOffset input="SourceAlpha"/><feGaussianBlur stdDeviation="7" result="at"/><feFlood flood-color="#07fcca"/><feComposite operator="in" in2="at"/><feComposite in="SourceGraphic"/></filter><filter id="au" x="103.5" y="3.5" width="187" height="46" filterUnits="userSpaceOnUse"><feOffset input="SourceAlpha"/><feGaussianBlur stdDeviation="0.5" result="av"/><feFlood flood-opacity="0.161"/><feComposite operator="in" in2="av"/><feComposite in="SourceGraphic"/></filter></defs><g transform="translate(-73 -1411)"><g class="ay" transform="matrix(1, 0, 0, 1, 73, 1411)"><rect class="b" width="375" height="812" rx="50" transform="translate(9 6)"/></g><g transform="translate(85.906 1420.457)"><rect class="c" width="367.189" height="804.086" rx="50"/><g transform="translate(14.331 60.782)"><rect class="d" width="47.361" height="43.916" rx="10"/><text class="e" transform="translate(54.25 22.333)"><tspan x="0" y="0">SOLAR GRID</tspan></text><text class="f" transform="translate(54.25 32.389)"><tspan x="0" y="0">we make green energy.</tspan></text></g><g transform="translate(14.688 140.947)"><text class="g" transform="translate(0 5)"><tspan x="0" y="0">SECURE. SAFE. MAINTENABLE</tspan></text><text class="h" transform="translate(0 36.885)"><tspan x="0" y="0">Solar grid.</tspan></text><text class="i" transform="translate(0 71.444)"><tspan x="0" y="0">More than just solar</tspan></text><text class="j" transform="translate(0 99.588)"><tspan x="0" y="0">Go solar and save more, have a better budget on your electricity comsumption</tspan><tspan x="0" y="10">that lasts longer and full control over the appliances in your home with no</tspan><tspan x="0" y="20">hassle garanteed.</tspan></text></g><g transform="translate(14.795 296.539)"><g transform="translate(0 0)"><g class="ax" transform="matrix(1, 0, 0, 1, -27.7, -306)"><rect class="d" width="106.64" height="34.57" rx="17.285" transform="translate(27.7 306)"/></g><text class="f" transform="translate(33.995 20.699)"><tspan x="0" y="0">Go Solar</tspan></text></g><g transform="translate(120.312 0)"><g class="aw" transform="matrix(1, 0, 0, 1, -148.01, -306)"><rect class="k" width="106.64" height="34.57" rx="17.285" transform="translate(148.01 306)"/></g><text class="f" transform="translate(38.872 20.699)"><tspan x="0" y="0">Log in</tspan></text></g></g><g class="l" transform="translate(18.247 366.93)"><g class="av" transform="matrix(1, 0, 0, 1, -31.15, -376.39)"><rect class="m" width="325.904" height="198.222" transform="translate(31.15 376.39)"/></g><g class="au" transform="matrix(1, 0, 0, 1, -31.15, -376.39)"><rect class="b" width="325.904" height="21.164" transform="translate(31.15 376.39)"/></g><rect class="n" width="13.122" height="3.355" rx="1.678" transform="translate(303.477 9.034)"/><rect class="n" width="29.346" height="3.355" rx="1.678" transform="translate(9.543 33.037)"/><rect class="n" width="29.346" height="3.355" rx="1.678" transform="translate(165.815 33.037)"/><rect class="n" width="13.122" height="3.355" rx="1.678" transform="translate(28.391 9.034)"/><rect class="n" width="13.122" height="3.355" rx="1.678" transform="translate(47.239 9.034)"/><rect class="n" width="13.122" height="3.355" rx="1.678" transform="translate(66.087 9.034)"/><rect class="n" width="5.249" height="3.355" rx="1.678" transform="translate(292.264 9.034)"/><rect class="n" width="5.249" height="3.355" rx="1.678" transform="translate(281.05 9.034)"/><g class="at" transform="matrix(1, 0, 0, 1, -31.15, -376.39)"><rect class="b" width="150.784" height="79.754" rx="10" transform="translate(196.97 418.97)"/></g><g class="as" transform="matrix(1, 0, 0, 1, -31.15, -376.39)"><rect class="b" width="150.784" height="79.754" rx="10" transform="translate(40.7 418.97)"/></g><g transform="translate(118.337 128.277)"><g class="ar" transform="matrix(1, 0, 0, 1, -149.49, -504.66)"><rect class="b" width="103.306" height="37.941" rx="10" transform="translate(149.49 504.66)"/></g><g transform="translate(43.303 7.356)"><line class="o" x2="54.635"/><line class="o" x2="54.635" transform="translate(0 4.388)"/><line class="o" x2="54.635" transform="translate(0 8.775)"/><line class="o" x2="54.635" transform="translate(0 13.163)"/><line class="o" x2="54.635" transform="translate(0 17.551)"/><line class="o" x2="54.635" transform="translate(0 21.939)"/></g><g class="aq" transform="matrix(1, 0, 0, 1, -149.49, -504.66)"><path class="p" d="M234.9,807.267s5.3-11.406,10.37-13.06,5.378,6.445,9.929,6.445,2.924-6.952,8.274-6.445,7.447,9.578,13.128,8.474c2.17-.422,4.083-2.4,5.653-4.741a38.8,38.8,0,0,0,3.945-8.148" transform="translate(-38.91 -273.31)"/></g><rect class="n" width="22.665" height="3.355" rx="1.678" transform="translate(6.68 26.068)"/><rect class="n" width="12.406" height="3.355" rx="1.678" transform="translate(6.68 20.132)"/><rect class="q" width="22.665" height="8.259" rx="4.13" transform="translate(6.68 4.646)"/></g><g transform="translate(227.131 128.277)"><g class="ap" transform="matrix(1, 0, 0, 1, -258.28, -504.66)"><rect class="b" width="103.306" height="37.941" rx="10" transform="translate(258.28 504.66)"/></g><g transform="translate(43.303 7.356)"><line class="o" x2="54.635"/><line class="o" x2="54.635" transform="translate(0 4.388)"/><line class="o" x2="54.635" transform="translate(0 8.775)"/><line class="o" x2="54.635" transform="translate(0 13.163)"/><line class="o" x2="54.635" transform="translate(0 17.551)"/><line class="o" x2="54.635" transform="translate(0 21.939)"/></g><g class="ao" transform="matrix(1, 0, 0, 1, -258.28, -504.66)"><path class="r" d="M234.9,807.267s5.3-11.406,10.37-13.06,5.378,6.445,9.929,6.445,2.924-6.952,8.274-6.445,7.447,9.578,13.128,8.474c2.17-.422,4.083-2.4,5.653-4.741a38.8,38.8,0,0,0,3.945-8.148" transform="translate(69.88 -273.31)"/></g><rect class="n" width="22.665" height="3.355" rx="1.678" transform="translate(6.68 27.101)"/><rect class="n" width="12.406" height="3.355" rx="1.678" transform="translate(6.68 21.164)"/><rect class="s" width="22.665" height="8.259" rx="4.13" transform="translate(6.68 5.678)"/></g><g transform="translate(9.543 128.277)"><g class="an" transform="matrix(1, 0, 0, 1, -40.7, -504.66)"><rect class="b" width="103.306" height="37.941" rx="10" transform="translate(40.7 504.66)"/></g><rect class="n" width="22.665" height="3.355" rx="1.678" transform="translate(6.68 27.101)"/><rect class="n" width="12.406" height="3.355" rx="1.678" transform="translate(6.68 21.164)"/><rect class="d" width="22.665" height="8.259" rx="4.13" transform="translate(6.68 5.678)"/><g transform="translate(43.303 7.356)"><line class="o" x2="54.635"/><line class="o" x2="54.635" transform="translate(0 4.388)"/><line class="o" x2="54.635" transform="translate(0 8.775)"/><line class="o" x2="54.635" transform="translate(0 13.163)"/><line class="o" x2="54.635" transform="translate(0 17.551)"/><line class="o" x2="54.635" transform="translate(0 21.939)"/></g><g class="am" transform="matrix(1, 0, 0, 1, -40.7, -504.66)"><path class="t" d="M234.9,807.267s5.3-11.406,10.37-13.06,5.378,6.445,9.929,6.445,2.924-6.952,8.274-6.445,7.447,9.578,13.128,8.474c2.17-.422,4.083-2.4,5.653-4.741a38.8,38.8,0,0,0,3.945-8.148" transform="translate(-147.71 -273.31)"/></g></g><g transform="translate(18.609 49.359)"><g transform="translate(0 0.067)"><g transform="translate(0.119)"><line class="o" y2="65.816" transform="translate(0 0.258)"/><g transform="translate(4.056)"><g class="u"><g transform="translate(-96.5 -190.5)"><line class="v" y2="255" transform="translate(96.5 190.5)"/><line class="v" y2="255" transform="translate(113.5 190.5)"/><line class="v" y2="255" transform="translate(130.5 191.5)"/><line class="v" y2="255" transform="translate(147.5 190.5)"/><line class="v" y2="255" transform="translate(164.5 190.5)"/></g><g transform="translate(-11.5 -190.5)"><line class="v" y2="255" transform="translate(96.5 190.5)"/><line class="v" y2="255" transform="translate(113.5 190.5)"/><line class="v" y2="255" transform="translate(130.5 191.5)"/><line class="v" y2="255" transform="translate(147.5 190.5)"/><line class="v" y2="255" transform="translate(164.5 190.5)"/></g></g></g></g><g transform="translate(0 0.129)"><line class="o" x1="132.413" transform="translate(0.239 65.816)"/><line class="w" x1="132.413" transform="translate(0.239 61.428)"/><line class="w" x1="132.413" transform="translate(0.239 57.041)"/><line class="w" x1="132.413" transform="translate(0 52.653)"/><line class="w" x1="132.413" transform="translate(0 48.265)"/><line class="w" x1="132.413" transform="translate(0 43.877)"/><line class="w" x1="132.413" transform="translate(0 39.49)"/><line class="w" x1="132.413" transform="translate(0 35.102)"/><line class="w" x1="132.413" transform="translate(0 30.714)"/><line class="w" x1="132.413" transform="translate(0 26.326)"/><line class="w" x1="132.413" transform="translate(0.239 21.939)"/><line class="w" x1="132.413" transform="translate(0.239 17.551)"/><line class="w" x1="132.413" transform="translate(0.239 13.163)"/><line class="w" x1="132.413" transform="translate(0.239 8.775)"/><line class="w" x1="132.413" transform="translate(0.239 4.388)"/><line class="w" x1="132.413" transform="translate(0.239)"/></g></g><g class="al" transform="matrix(1, 0, 0, 1, -49.76, -425.75)"><path class="t" d="M78,438.5s14.965,13.4,20.5,22.3,6.169,16.344,16.283,17.434,11.415-4.177,24.173-13.076,22.159-5.448,28.37-4.358,15.192,8.535,24.341,8.535,7.68-7.491,12.255-8.535,6.043,4.358,6.043,4.358" transform="translate(-28.24 -12.69)"/></g><g class="ak" transform="matrix(1, 0, 0, 1, -49.76, -425.75)"><path class="p" d="M110.468,438.5s4.2,38.335,12.422,52.627,15.108,10.533,20.48,4.54,7.89-35.413,28.538-39.408,17.459-3.632,24.341-8.9,18.3,29.783,38.107,26.514" transform="translate(-52.96 -12.69)"/></g><g class="aj" transform="matrix(1, 0, 0, 1, -49.76, -425.75)"><path class="x" d="M123.782,438.24s-12.118,42.943-3.892,57.234c4.713,8.189,14.972,4.691,19.991-4.6,3.71-6.87,18.228-2.034,20.522-4.593,5.372-5.993,4.12-39.45,24.768-43.445s18.045,23.384,28.129,30.849,6.552-27.58,26.36-30.849" transform="translate(-57.95 -12.49)"/></g></g><g transform="translate(174.332 49.399)"><g transform="translate(0.549 0.028)"><g transform="translate(0.119)"><line class="o" y2="65.816" transform="translate(0 0.258)"/><g transform="translate(4.056)"><g class="u"><g transform="translate(-96.5 -190.5)"><line class="v" y2="255" transform="translate(96.5 190.5)"/><line class="v" y2="255" transform="translate(113.5 190.5)"/><line class="v" y2="255" transform="translate(130.5 191.5)"/><line class="v" y2="255" transform="translate(147.5 190.5)"/><line class="v" y2="255" transform="translate(164.5 190.5)"/></g><g transform="translate(-11.5 -190.5)"><line class="v" y2="255" transform="translate(96.5 190.5)"/><line class="v" y2="255" transform="translate(113.5 190.5)"/><line class="v" y2="255" transform="translate(130.5 191.5)"/><line class="v" y2="255" transform="translate(147.5 190.5)"/><line class="v" y2="255" transform="translate(164.5 190.5)"/></g></g></g></g><g transform="translate(0 0.129)"><line class="o" x1="132.413" transform="translate(0.239 65.816)"/><line class="w" x1="132.413" transform="translate(0.239 61.428)"/><line class="w" x1="132.413" transform="translate(0.239 57.041)"/><line class="w" x1="132.413" transform="translate(0 52.653)"/><line class="w" x1="132.413" transform="translate(0 48.265)"/><line class="w" x1="132.413" transform="translate(0 43.877)"/><line class="w" x1="132.413" transform="translate(0 39.49)"/><line class="w" x1="132.413" transform="translate(0 35.102)"/><line class="w" x1="132.413" transform="translate(0 30.714)"/><line class="w" x1="132.413" transform="translate(0 26.326)"/><line class="w" x1="132.413" transform="translate(0.239 21.939)"/><line class="w" x1="132.413" transform="translate(0.239 17.551)"/><line class="w" x1="132.413" transform="translate(0.239 13.163)"/><line class="w" x1="132.413" transform="translate(0.239 8.775)"/><line class="w" x1="132.413" transform="translate(0.239 4.388)"/><line class="w" x1="132.413" transform="translate(0.239)"/></g></g><g class="ai" transform="matrix(1, 0, 0, 1, -205.49, -425.79)"><path class="t" d="M79.731,553.81s21.392-29.449,26.931-20.55,13.21-1.09,23.324,0,15.135,5.777,27.893-3.121,16.151-1.09,22.363,0,3.6-10.766,12.748-10.766,7.68-7.491,12.254-8.535a12.116,12.116,0,0,0,6.979-4.891" transform="translate(126.72 -62.72)"/></g><g class="ah" transform="matrix(1, 0, 0, 1, -205.49, -425.79)"><path class="p" d="M75.7,438.4s24.477-.765,32.7,13.527,9.537,2.611,14.908-3.382,11.061,11.706,21.4,10.145,7.935-3.122,23.324-8.584,20.039,26.958,39.847,23.69" transform="translate(129.79 -12.61)"/></g><g class="ag" transform="matrix(1, 0, 0, 1, -205.49, -425.79)"><path class="x" d="M76.707,587.7s7.214-29.395,19.958-36.678c16.592,5.723,7.935,15.088,48.813,0,16.351-4.422,9.137,25.493,29.336,17.169s14.817-13.9,34.626-17.169" transform="translate(129.02 -95.83)"/></g></g><g transform="translate(215.554 52.567)"><g class="af" transform="matrix(1, 0, 0, 1, -246.71, -428.95)"><path class="a" d="M26.7,57.542a24.9,24.9,0,0,1-10.394-2.261,26.6,26.6,0,0,1-8.488-6.166A28.894,28.894,0,0,1,2.1,39.97a30.933,30.933,0,0,1,0-22.4A28.894,28.894,0,0,1,7.821,8.427a26.6,26.6,0,0,1,8.488-6.166,25.022,25.022,0,0,1,20.788,0,26.6,26.6,0,0,1,8.488,6.166,28.894,28.894,0,0,1,5.723,9.145,30.932,30.932,0,0,1,0,22.4,28.894,28.894,0,0,1-5.723,9.145A26.6,26.6,0,0,1,37.1,55.281,24.9,24.9,0,0,1,26.7,57.542Zm0-41.034c-6.276,0-11.382,5.5-11.382,12.263S20.427,41.034,26.7,41.034s11.382-5.5,11.382-12.263S32.979,16.508,26.7,16.508Z" transform="translate(246.71 428.95)"/></g><g class="ae" transform="matrix(1, 0, 0, 1, -246.71, -428.95)"><path class="a" d="M23.288,42.815a24.908,24.908,0,0,1-9.065-1.682,23.421,23.421,0,0,1-7.4-4.588,21.334,21.334,0,0,1-4.991-6.8,19.886,19.886,0,0,1,0-16.666,21.334,21.334,0,0,1,4.991-6.8,23.422,23.422,0,0,1,7.4-4.588,25.262,25.262,0,0,1,18.129,0,23.422,23.422,0,0,1,7.4,4.588,21.334,21.334,0,0,1,4.991,6.8,19.886,19.886,0,0,1,0,16.666,21.334,21.334,0,0,1-4.991,6.8,23.421,23.421,0,0,1-7.4,4.588A24.908,24.908,0,0,1,23.288,42.815Zm0-30.533c-5.473,0-9.926,4.093-9.926,9.125s4.453,9.125,9.926,9.125,9.926-4.093,9.926-9.125S28.761,12.283,23.288,12.283Z" transform="translate(250.12 436.17)"/></g><g class="ad" transform="matrix(1, 0, 0, 1, -246.71, -428.95)"><path class="a" d="M12.7,39.122a8.957,8.957,0,0,1-4.942-1.537,14.029,14.029,0,0,1-4.036-4.192A22.17,22.17,0,0,1,1,27.175a28.766,28.766,0,0,1-1-7.614,28.765,28.765,0,0,1,1-7.614A22.17,22.17,0,0,1,3.719,5.729,14.029,14.029,0,0,1,7.755,1.537,8.957,8.957,0,0,1,12.7,0,8.957,8.957,0,0,1,17.64,1.537a14.03,14.03,0,0,1,4.036,4.192A22.17,22.17,0,0,1,24.4,11.947a28.765,28.765,0,0,1,1,7.614,28.765,28.765,0,0,1-1,7.614,22.17,22.17,0,0,1-2.721,6.218,14.029,14.029,0,0,1-4.036,4.192A8.957,8.957,0,0,1,12.7,39.122Zm0-27.9c-2.984,0-5.412,3.74-5.412,8.337S9.713,27.9,12.7,27.9s5.412-3.74,5.412-8.337S15.681,11.223,12.7,11.223Z" transform="translate(260.74 438.16)"/></g></g><rect class="n" width="13.968" height="12.535" rx="6.268" transform="translate(158.281 4.216)"/></g><g transform="translate(312.292 592.881)"><ellipse class="y" cx="16.632" cy="16.632" rx="16.632" ry="16.632" transform="translate(1.134)"/><ellipse class="y" cx="16.632" cy="16.632" rx="16.632" ry="16.632" transform="translate(1.134 79)"/><ellipse class="y" cx="16.632" cy="16.632" rx="16.632" ry="16.632" transform="translate(0 158.001)"/><line class="z" y2="34.775" transform="translate(17.955 38.744)"/><line class="z" y2="34.775" transform="translate(17.955 117.745)"/></g><g transform="translate(167.219 592.881)"><text class="aa" transform="translate(96.84 6)"><tspan x="0" y="0">MONITORING</tspan></text><text class="ab" transform="translate(137 17.766)"><tspan x="-124.14" y="0">Monitor your appliances anywhere, anytime</tspan><tspan x="-88.143" y="8">on your mobile phone and web</tspan></text></g><g transform="translate(152.892 674.432)"><text class="aa" transform="translate(150.563 6)"><tspan x="-43.948" y="0">MAINTENANCE</tspan></text><text class="ab" transform="translate(151 17.445)"><tspan x="-137.54" y="0" xml:space="preserve">Manage and maintain  your energy consumption</tspan><tspan x="-76.266" y="8">right from your fingertips. </tspan></text></g><g transform="translate(157.241 755.633)"><text class="aa" transform="translate(144.168 6)"><tspan x="-30.105" y="0">TRACKING</tspan></text><text class="ab" transform="translate(144 16.295)"><tspan x="-130.31" y="0">Keep track of all your devices with an intuitive</tspan><tspan x="-51.765" y="8">dashboard design.</tspan></text></g></g><g class="ac" transform="matrix(1, 0, 0, 1, 73, 1411)"><path class="b" d="M0,0H184a0,0,0,0,1,0,0V18a25,25,0,0,1-25,25H25A25,25,0,0,1,0,18V0A0,0,0,0,1,0,0Z" transform="translate(105 5)"/></g></g></svg>