<svg xmlns="http://www.w3.org/2000/svg" xmlns:xlink="http://www.w3.org/1999/xlink" viewBox="0 0 326.54 216.09"><defs><style>.cls-1{isolation:isolate;}.cls-11,.cls-2{mix-blend-mode:lighten;}.cls-11,.cls-20,.cls-21,.cls-3{fill:#42e8e0;}.cls-4{opacity:0.11;}.cls-5{fill:url(#Áåçûìÿííûé_ãðàäèåíò_143);}.cls-6{fill:url(#Áåçûìÿííûé_ãðàäèåíò_143-2);}.cls-16,.cls-17,.cls-18,.cls-19,.cls-20,.cls-22,.cls-23,.cls-7,.cls-9{opacity:0.5;}.cls-7{fill:url(#Áåçûìÿííûé_ãðàäèåíò_143-3);}.cls-8{opacity:0.4;}.cls-10{fill:url(#Áåçûìÿííûé_ãðàäèåíò_143-5);}.cls-12{fill:url(#Áåçûìÿííûé_ãðàäèåíò_18);}.cls-13{fill:#bcbeff;}.cls-14{fill:#fff;}.cls-15{fill:#0f054c;}.cls-16{fill:url(#Áåçûìÿííûé_ãðàäèåíò_254);}.cls-17{fill:url(#Áåçûìÿííûé_ãðàäèåíò_254-2);}.cls-18{fill:url(#Áåçûìÿííûé_ãðàäèåíò_254-3);}.cls-19{fill:url(#Áåçûìÿííûé_ãðàäèåíò_254-4);}.cls-21{opacity:0.8;}.cls-22{fill:url(#Áåçûìÿííûé_ãðàäèåíò_254-5);}.cls-23{fill:url(#Áåçûìÿííûé_ãðàäèåíò_254-6);}</style><linearGradient id="Áåçûìÿííûé_ãðàäèåíò_143" x1="0.62" y1="34.37" x2="96" y2="34.37" gradientUnits="userSpaceOnUse"><stop offset="0" stop-color="#5761d7"/><stop offset="0.07" stop-color="#5472d8"/><stop offset="0.28" stop-color="#4e9cdb"/><stop offset="0.48" stop-color="#49bddd"/><stop offset="0.67" stop-color="#45d5df"/><stop offset="0.85" stop-color="#43e3e0"/><stop offset="1" stop-color="#42e8e0"/></linearGradient><linearGradient id="Áåçûìÿííûé_ãðàäèåíò_143-2" x1="0.62" y1="27.03" x2="96" y2="27.03" xlink:href="#Áåçûìÿííûé_ãðàäèåíò_143"/><linearGradient id="Áåçûìÿííûé_ãðàäèåíò_143-3" x1="0.62" y1="34.37" x2="96" y2="34.37" xlink:href="#Áåçûìÿííûé_ãðàäèåíò_143"/><linearGradient id="Áåçûìÿííûé_ãðàäèåíò_143-5" x1="0.62" y1="40.26" x2="96" y2="40.26" xlink:href="#Áåçûìÿííûé_ãðàäèåíò_143"/><linearGradient id="Áåçûìÿííûé_ãðàäèåíò_18" x1="8.53" y1="159.14" x2="309" y2="159.14" gradientUnits="userSpaceOnUse"><stop offset="0" stop-color="#5761d7"/><stop offset="0.16" stop-color="#5e67da"/><stop offset="0.41" stop-color="#727ae2"/><stop offset="0.69" stop-color="#9297ee"/><stop offset="1" stop-color="#bcbeff"/></linearGradient><linearGradient id="Áåçûìÿííûé_ãðàäèåíò_254" x1="93.56" y1="118.53" x2="273.91" y2="118.53" gradientUnits="userSpaceOnUse"><stop offset="0" stop-color="#42e8e0"/><stop offset="0.15" stop-color="#43e3e0"/><stop offset="0.33" stop-color="#45d5df"/><stop offset="0.52" stop-color="#49bddd"/><stop offset="0.72" stop-color="#4e9cdb"/><stop offset="0.93" stop-color="#5472d8"/><stop offset="1" stop-color="#5761d7"/></linearGradient><linearGradient id="Áåçûìÿííûé_ãðàäèåíò_254-2" x1="183.73" y1="85.94" x2="273.91" y2="85.94" xlink:href="#Áåçûìÿííûé_ãðàäèåíò_254"/><linearGradient id="Áåçûìÿííûé_ãðàäèåíò_254-3" x1="93.56" y1="85.94" x2="183.74" y2="85.94" xlink:href="#Áåçûìÿííûé_ãðàäèåíò_254"/><linearGradient id="Áåçûìÿííûé_ãðàäèåíò_254-4" x1="93.56" y1="105.41" x2="273.91" y2="105.41" xlink:href="#Áåçûìÿííûé_ãðàäèåíò_254"/><linearGradient id="Áåçûìÿííûé_ãðàäèåíò_254-5" x1="183.74" y1="138" x2="273.91" y2="138" xlink:href="#Áåçûìÿííûé_ãðàäèåíò_254"/><linearGradient id="Áåçûìÿííûé_ãðàäèåíò_254-6" x1="93.56" y1="138" x2="183.74" y2="138" xlink:href="#Áåçûìÿííûé_ãðàäèåíò_254"/></defs><title>iso_circuit</title><g class="cls-1"><g id="Layer_2" data-name="Layer 2"><g id="Ñëîé_1" data-name="Ñëîé 1"><g class="cls-2"><path class="cls-3" d="M48.28,75.84a7.09,7.09,0,0,1-3.54-1L.83,49.54a1.65,1.65,0,0,1,0-2.86L44.38,21.59a8,8,0,0,1,7.93,0L95.8,46.7a1.66,1.66,0,0,1,0,2.86l-44,25.33A7.06,7.06,0,0,1,48.28,75.84Zm.06-54.06a6.74,6.74,0,0,0-3.34.89L1.45,47.76a.37.37,0,0,0-.2.35.38.38,0,0,0,.2.35L45.37,73.82a5.87,5.87,0,0,0,5.82,0l44-25.34a.39.39,0,0,0,.2-.35.4.4,0,0,0-.2-.35L51.69,22.67h0A6.75,6.75,0,0,0,48.34,21.78Z"/></g><g class="cls-4"><path class="cls-5" d="M52,8.32a7.31,7.31,0,0,0-7.31,0L1.14,33.4a1,1,0,0,0,0,1.78L45.05,60.54a6.46,6.46,0,0,0,6.45,0l44-25.33a1,1,0,0,0,0-1.78Z"/></g><g class="cls-4"><path class="cls-6" d="M52,1a7.29,7.29,0,0,0-7.31,0L1.14,26.06a1,1,0,0,0,0,1.79L45.05,53.2a6.46,6.46,0,0,0,6.45,0l44-25.33a1,1,0,0,0,0-1.78Z"/></g><path class="cls-7" d="M95.49,26.09,52,1a7.29,7.29,0,0,0-7.31,0L1.14,26.06A1,1,0,0,0,.62,27V41.63a1,1,0,0,0,.52.89L45.05,67.88a6.46,6.46,0,0,0,6.45,0l44-25.34a1,1,0,0,0,.51-.89V27h0A1,1,0,0,0,95.49,26.09Z"/><g class="cls-8"><path class="cls-6" d="M52,1a7.29,7.29,0,0,0-7.31,0L1.14,26.06a1,1,0,0,0,0,1.79L45.05,53.2a6.46,6.46,0,0,0,6.45,0l44-25.33a1,1,0,0,0,0-1.78Z"/></g><g class="cls-9"><path class="cls-3" d="M49.88,15.36a3.12,3.12,0,0,0-3.1,0L27.26,26.6a.47.47,0,0,0,0,.8l19.6,11.31a2.9,2.9,0,0,0,2.88,0l19.62-11.3a.46.46,0,0,0,0-.8Z"/></g><path class="cls-3" d="M27.26,27.31,46.78,16.06a3.09,3.09,0,0,1,3.1,0L69.36,27.32l0,0a.45.45,0,0,0,0-.75L49.88,15.36a3.12,3.12,0,0,0-3.1,0L27.26,26.6a.45.45,0,0,0,0,.75S27.24,27.32,27.26,27.31Z"/><path class="cls-10" d="M95.49,26.86l-44,25.33a6.46,6.46,0,0,1-6.45,0L1.14,26.83a1,1,0,0,1-.38-.38,1,1,0,0,0,.38,1.4L45.05,53.2a6.46,6.46,0,0,0,6.45,0l44-25.33a1,1,0,0,0,.38-1.4A1.09,1.09,0,0,1,95.49,26.86Z"/><path class="cls-11" d="M58.78,125.37a4.82,4.82,0,0,1-2.38-.72l-15.26-8.81a.63.63,0,0,1,0-1.08L153.89,49.9a.6.6,0,0,1,.62,0l15.26,8.8a2.22,2.22,0,0,0,3.7-2.13V52.9A3.44,3.44,0,0,1,179,49.68l3.19,1.84a.63.63,0,0,1-.63,1.08l-3.18-1.84a2.22,2.22,0,0,0-3.7,2.14v3.68a3.43,3.43,0,0,1-5.57,3.21l-15-8.63L42.7,115.3,57,123.57a2.69,2.69,0,0,0,2.66.33,2.7,2.7,0,0,0,1-2.47v-3.67a3.44,3.44,0,0,1,5.57-3.22l3.19,1.84a.62.62,0,1,1-.62,1.08l-3.19-1.84a2.22,2.22,0,0,0-3.7,2.14v3.67A3.84,3.84,0,0,1,60.3,125,3,3,0,0,1,58.78,125.37Z"/><path class="cls-11" d="M165.6,63.92a4.82,4.82,0,0,1-2.39-.72L148,54.4a.62.62,0,0,1,.62-1.08l15.26,8.81a2.23,2.23,0,0,0,3.7-2.14V56.31a3.43,3.43,0,0,1,5.57-3.21l3.18,1.84a.62.62,0,1,1-.62,1.07l-3.19-1.84a2.23,2.23,0,0,0-3.7,2.14V60a3.84,3.84,0,0,1-1.67,3.54A3,3,0,0,1,165.6,63.92Z"/><path class="cls-11" d="M159.66,67.34a4.82,4.82,0,0,1-2.38-.72L142,57.81a.62.62,0,1,1,.62-1.08l15.26,8.81a2.22,2.22,0,0,0,3.7-2.14V59.72a3.43,3.43,0,0,1,5.57-3.21l3.19,1.84a.62.62,0,0,1,.23.85.64.64,0,0,1-.86.23l-3.18-1.84a2.22,2.22,0,0,0-3.7,2.13V63.4a3.84,3.84,0,0,1-1.67,3.54A3,3,0,0,1,159.66,67.34Z"/><path class="cls-11" d="M153.73,70.75a4.82,4.82,0,0,1-2.39-.72l-15.25-8.81a.62.62,0,1,1,.62-1.07L152,69a2.22,2.22,0,0,0,3.7-2.13V63.14a3.44,3.44,0,0,1,5.57-3.22l3.18,1.84a.62.62,0,0,1-.62,1.08L160.61,61a2.23,2.23,0,0,0-3.7,2.14v3.68a3.84,3.84,0,0,1-1.67,3.54A3,3,0,0,1,153.73,70.75Z"/><path class="cls-11" d="M147.79,74.16a4.9,4.9,0,0,1-2.38-.71l-15.26-8.81a.63.63,0,0,1,.63-1.08L146,72.37a2.22,2.22,0,0,0,3.7-2.14V66.55a3.43,3.43,0,0,1,5.57-3.21l3.19,1.84a.62.62,0,0,1,.23.85.63.63,0,0,1-.85.22l-3.19-1.84a2.23,2.23,0,0,0-3.7,2.14v3.68a3.84,3.84,0,0,1-1.67,3.54A3,3,0,0,1,147.79,74.16Z"/><path class="cls-11" d="M141.86,77.58a4.79,4.79,0,0,1-2.38-.72l-15.26-8.81a.62.62,0,0,1,.62-1.08l15.26,8.81a2.22,2.22,0,0,0,3.7-2.14V70a3.43,3.43,0,0,1,5.57-3.21l3.19,1.84a.63.63,0,0,1-.63,1.08l-3.18-1.84a2.22,2.22,0,0,0-3.7,2.13v3.68a3.84,3.84,0,0,1-1.67,3.54A3,3,0,0,1,141.86,77.58Z"/><path class="cls-11" d="M135.92,81a4.82,4.82,0,0,1-2.38-.72l-15.25-8.81a.62.62,0,1,1,.62-1.07l15.25,8.81a2.23,2.23,0,0,0,3.71-2.14V73.38a3.43,3.43,0,0,1,5.56-3.22L146.62,72a.62.62,0,0,1-.62,1.08l-3.19-1.84a2.23,2.23,0,0,0-3.7,2.14v3.68a3.84,3.84,0,0,1-1.67,3.54A3,3,0,0,1,135.92,81Z"/><path class="cls-11" d="M130,84.41a4.92,4.92,0,0,1-2.38-.72L82.33,57A.62.62,0,1,1,83,55.88l45.27,26.73a2.22,2.22,0,0,0,3.69-2.14V76.79a3.43,3.43,0,0,1,5.57-3.21l3.19,1.84a.62.62,0,0,1,.22.85.61.61,0,0,1-.85.22l-3.18-1.83a2.22,2.22,0,0,0-3.7,2.13v3.68A3.86,3.86,0,0,1,131.51,84,3,3,0,0,1,130,84.41Z"/><path class="cls-11" d="M124.06,87.82a4.82,4.82,0,0,1-2.39-.72L76.41,60.37A.63.63,0,0,1,77,59.29L122.3,86a2.23,2.23,0,0,0,3.7-2.14V80.21A3.44,3.44,0,0,1,131.57,77l3.18,1.84a.62.62,0,1,1-.62,1.08l-3.19-1.84a2.22,2.22,0,0,0-3.7,2.14v3.68a3.82,3.82,0,0,1-1.67,3.53A2.89,2.89,0,0,1,124.06,87.82Z"/><path class="cls-11" d="M118.12,91.23a4.82,4.82,0,0,1-2.38-.72L70.38,63.83A.62.62,0,0,1,71,62.76l45.36,26.68a2.22,2.22,0,0,0,3.69-2.14V83.62a3.43,3.43,0,0,1,5.57-3.21l3.19,1.83a.62.62,0,1,1-.62,1.08L125,81.48a2.23,2.23,0,0,0-3.7,2.14V87.3a3.84,3.84,0,0,1-1.67,3.54A3,3,0,0,1,118.12,91.23Z"/><path class="cls-11" d="M112.19,94.65a4.76,4.76,0,0,1-2.38-.72L64.46,67.25a.62.62,0,1,1,.63-1.07l45.34,26.67a2.23,2.23,0,0,0,3.7-2.14V87a3.43,3.43,0,0,1,5.57-3.21l3.19,1.84a.63.63,0,0,1-.63,1.08l-3.18-1.84A2.23,2.23,0,0,0,115.37,87v3.68a3.85,3.85,0,0,1-1.66,3.54A3,3,0,0,1,112.19,94.65Z"/><path class="cls-11" d="M106.25,98.06a4.82,4.82,0,0,1-2.38-.72L88.61,88.53a.63.63,0,0,1,.63-1.08l15.25,8.81a2.23,2.23,0,0,0,3.71-2.13V90.45a3.43,3.43,0,0,1,5.56-3.22L117,89.07a.62.62,0,1,1-.62,1.08l-3.19-1.84a2.23,2.23,0,0,0-3.7,2.14v3.68a3.85,3.85,0,0,1-1.67,3.54A3,3,0,0,1,106.25,98.06Z"/><path class="cls-11" d="M100.32,101.47a4.82,4.82,0,0,1-2.38-.72L82.68,92a.62.62,0,0,1,.62-1.08l15.26,8.81a2.23,2.23,0,0,0,3.7-2.14V93.86a3.43,3.43,0,0,1,5.57-3.21L111,92.49a.62.62,0,0,1,.22.85.63.63,0,0,1-.85.22l-3.18-1.84a2.22,2.22,0,0,0-3.7,2.14v3.68a3.86,3.86,0,0,1-1.67,3.54A3,3,0,0,1,100.32,101.47Z"/><path class="cls-11" d="M94.39,104.89a4.82,4.82,0,0,1-2.39-.72L76.75,95.36a.62.62,0,0,1,.62-1.08l15.26,8.81a2.23,2.23,0,0,0,3.7-2.14V97.27a3.43,3.43,0,0,1,5.57-3.21l3.18,1.84a.62.62,0,1,1-.62,1.08l-3.19-1.84a2.22,2.22,0,0,0-3.7,2.13V101a3.82,3.82,0,0,1-1.67,3.54A2.92,2.92,0,0,1,94.39,104.89Z"/><path class="cls-11" d="M88.45,108.3a4.82,4.82,0,0,1-2.38-.72L70.81,98.77a.62.62,0,0,1-.22-.85.61.61,0,0,1,.85-.22l15.25,8.8a2.22,2.22,0,0,0,3.7-2.13v-3.68A3.44,3.44,0,0,1,96,97.47l3.19,1.84a.62.62,0,0,1-.62,1.08l-3.19-1.84a2.22,2.22,0,0,0-3.7,2.14v3.68A3.84,3.84,0,0,1,90,107.91,3,3,0,0,1,88.45,108.3Z"/><path class="cls-11" d="M82.52,111.71a4.82,4.82,0,0,1-2.39-.72l-15.25-8.8a.62.62,0,1,1,.62-1.08l15.26,8.81a2.23,2.23,0,0,0,3.7-2.14V104.1A3.43,3.43,0,0,1,90,100.89l3.18,1.84a.62.62,0,1,1-.62,1.07L89.4,102a2.23,2.23,0,0,0-3.7,2.14v3.68A3.85,3.85,0,0,1,84,111.32,3,3,0,0,1,82.52,111.71Z"/><path class="cls-11" d="M76.58,115.13a4.82,4.82,0,0,1-2.38-.72L58.94,105.6a.63.63,0,0,1,.63-1.08l15.25,8.81a2.22,2.22,0,0,0,3.7-2.14v-3.68a3.43,3.43,0,0,1,5.57-3.21l3.19,1.84a.62.62,0,1,1-.62,1.08l-3.19-1.84a2.22,2.22,0,0,0-3.7,2.13v3.68a3.82,3.82,0,0,1-1.67,3.54A3,3,0,0,1,76.58,115.13Z"/><path class="cls-11" d="M70.65,118.54a4.82,4.82,0,0,1-2.38-.72L53,109a.62.62,0,1,1,.62-1.07l15.26,8.8a2.22,2.22,0,0,0,3.7-2.13v-3.68a3.44,3.44,0,0,1,5.57-3.22l3.19,1.84a.63.63,0,0,1-.63,1.08l-3.18-1.84a2.22,2.22,0,0,0-3.7,2.14v3.68a3.86,3.86,0,0,1-1.67,3.54A3,3,0,0,1,70.65,118.54Z"/><path class="cls-11" d="M64.72,122a4.93,4.93,0,0,1-2.39-.72l-15.25-8.81a.62.62,0,1,1,.62-1.08L63,120.16a2.23,2.23,0,0,0,3.7-2.14v-3.68a3.43,3.43,0,0,1,5.57-3.21L75.41,113a.62.62,0,0,1,.23.85.61.61,0,0,1-.85.22L71.6,112.2a2.23,2.23,0,0,0-3.7,2.14V118a3.84,3.84,0,0,1-1.67,3.54A3,3,0,0,1,64.72,122Z"/><path class="cls-11" d="M201.78,64.2a3,3,0,0,1-1.52-.39,3.84,3.84,0,0,1-1.67-3.54V56.59a2.22,2.22,0,0,0-3.7-2.14l-3.19,1.84a.62.62,0,0,1-.85-.22.64.64,0,0,1,.23-.86l3.19-1.84a3.44,3.44,0,0,1,5.57,3.22v3.68a2.22,2.22,0,0,0,3.7,2.14l15.25-8.81a.64.64,0,0,1,.86.23.63.63,0,0,1-.23.85l-15.26,8.8A4.82,4.82,0,0,1,201.78,64.2Z"/><path class="cls-11" d="M207.71,67.62a3,3,0,0,1-1.52-.4,3.85,3.85,0,0,1-1.66-3.54V60a2.23,2.23,0,0,0-3.71-2.13l-3.18,1.84a.62.62,0,1,1-.62-1.08l3.18-1.84A3.43,3.43,0,0,1,205.77,60v3.68a2.23,2.23,0,0,0,3.7,2.14L224.73,57a.62.62,0,0,1,.62,1.08L210.1,66.9A4.82,4.82,0,0,1,207.71,67.62Z"/><path class="cls-11" d="M213.65,71a3,3,0,0,1-1.52-.39,3.85,3.85,0,0,1-1.67-3.54V63.42a2.22,2.22,0,0,0-3.7-2.14l-3.19,1.84A.62.62,0,1,1,203,62l3.19-1.84a3.44,3.44,0,0,1,5.57,3.22V67.1a2.22,2.22,0,0,0,3.7,2.13l15.25-8.81a.63.63,0,0,1,.85.23.62.62,0,0,1-.22.85L216,70.31A4.82,4.82,0,0,1,213.65,71Z"/><path class="cls-11" d="M219.58,74.44a3,3,0,0,1-1.52-.39,3.86,3.86,0,0,1-1.67-3.54V66.83a2.22,2.22,0,0,0-3.7-2.14l-3.18,1.84a.63.63,0,0,1-.63-1.08l3.19-1.83a3.43,3.43,0,0,1,5.57,3.21v3.68a2.23,2.23,0,0,0,3.7,2.14l15.26-8.81a.62.62,0,0,1,.62,1.08L222,73.72A4.82,4.82,0,0,1,219.58,74.44Z"/><path class="cls-11" d="M225.52,77.86a2.93,2.93,0,0,1-1.52-.4,3.84,3.84,0,0,1-1.67-3.54V70.24a2.22,2.22,0,0,0-3.7-2.13L215.44,70a.62.62,0,1,1-.62-1.08L218,67a3.43,3.43,0,0,1,5.57,3.21v3.68a2.23,2.23,0,0,0,3.7,2.14l15.26-8.81a.62.62,0,0,1,.62,1.08L227.9,77.14A4.82,4.82,0,0,1,225.52,77.86Z"/><path class="cls-11" d="M231.45,81.27a3,3,0,0,1-1.52-.39,3.86,3.86,0,0,1-1.67-3.54V73.66a2.22,2.22,0,0,0-3.7-2.14l-3.19,1.84a.62.62,0,1,1-.62-1.08l3.19-1.84a3.44,3.44,0,0,1,5.57,3.22v3.68a2.22,2.22,0,0,0,3.7,2.13l15.26-8.81a.64.64,0,0,1,.85.23.62.62,0,0,1-.23.85l-15.26,8.81A4.82,4.82,0,0,1,231.45,81.27Z"/><path class="cls-11" d="M237.38,84.68a3,3,0,0,1-1.51-.39,3.84,3.84,0,0,1-1.67-3.54V77.07a2.23,2.23,0,0,0-3.7-2.14l-3.19,1.84a.62.62,0,1,1-.62-1.07l3.18-1.84a3.43,3.43,0,0,1,5.57,3.21v3.68a2.23,2.23,0,0,0,3.7,2.14l15.26-8.81a.62.62,0,0,1,.62,1.08L239.77,84A4.91,4.91,0,0,1,237.38,84.68Z"/><path class="cls-11" d="M243.32,88.1a3,3,0,0,1-1.52-.4,3.82,3.82,0,0,1-1.67-3.54V80.48a2.22,2.22,0,0,0-3.7-2.13l-3.19,1.84a.62.62,0,1,1-.62-1.08l3.19-1.84a3.43,3.43,0,0,1,5.57,3.21v3.68a2.22,2.22,0,0,0,3.7,2.14l15.25-8.81a.63.63,0,0,1,.63,1.08L245.7,87.38A4.82,4.82,0,0,1,243.32,88.1Z"/><path class="cls-11" d="M249.25,91.51a3,3,0,0,1-1.52-.39,3.86,3.86,0,0,1-1.67-3.54V83.9a2.22,2.22,0,0,0-3.7-2.14l-3.18,1.84a.62.62,0,0,1-.85-.23.63.63,0,0,1,.22-.85l3.19-1.84a3.44,3.44,0,0,1,5.57,3.22v3.68a2.22,2.22,0,0,0,3.7,2.13l15.26-8.8a.62.62,0,1,1,.62,1.07l-15.26,8.81A4.76,4.76,0,0,1,249.25,91.51Z"/><path class="cls-11" d="M255.19,94.93a3,3,0,0,1-1.52-.4A3.84,3.84,0,0,1,252,91V87.31a2.23,2.23,0,0,0-3.7-2.14L245.11,87a.62.62,0,1,1-.62-1.07l3.19-1.84a3.42,3.42,0,0,1,5.56,3.21V91A2.23,2.23,0,0,0,257,93.13l15.25-8.81a.62.62,0,1,1,.62,1.08l-15.25,8.81A4.92,4.92,0,0,1,255.19,94.93Z"/><path class="cls-11" d="M261.12,98.34a3,3,0,0,1-1.52-.4,3.84,3.84,0,0,1-1.67-3.53V90.73a2.22,2.22,0,0,0-3.7-2.14l-3.18,1.84a.63.63,0,0,1-.63-1.08l3.19-1.84a3.44,3.44,0,0,1,5.57,3.22v3.68a2.22,2.22,0,0,0,3.7,2.13l15.26-8.81a.62.62,0,1,1,.62,1.08L263.5,97.62A4.82,4.82,0,0,1,261.12,98.34Z"/><path class="cls-11" d="M267.05,101.75a3,3,0,0,1-1.51-.39,3.84,3.84,0,0,1-1.67-3.54V94.14a2.23,2.23,0,0,0-3.7-2.14L257,93.84a.62.62,0,0,1-.62-1.08l3.18-1.84a3.44,3.44,0,0,1,5.57,3.22v3.68a2.22,2.22,0,0,0,3.7,2.13l15.26-8.8a.62.62,0,1,1,.62,1.07L269.44,101A4.82,4.82,0,0,1,267.05,101.75Z"/><path class="cls-11" d="M273,105.17a3,3,0,0,1-1.52-.4,3.84,3.84,0,0,1-1.67-3.54V97.55a2.22,2.22,0,0,0-3.7-2.13l-3.19,1.84a.62.62,0,0,1-.62-1.08l3.19-1.84a3.43,3.43,0,0,1,5.57,3.21v3.68a2.22,2.22,0,0,0,3.7,2.14L290,94.56a.63.63,0,1,1,.63,1.08l-15.26,8.81A4.82,4.82,0,0,1,273,105.17Z"/><path class="cls-11" d="M278.92,108.58a3,3,0,0,1-1.52-.39,3.86,3.86,0,0,1-1.66-3.54V101A2.23,2.23,0,0,0,272,98.83l-3.18,1.84a.62.62,0,0,1-.62-1.08l3.18-1.84A3.44,3.44,0,0,1,277,101v3.68a2.22,2.22,0,0,0,3.7,2.13L295.94,98a.62.62,0,1,1,.62,1.08l-15.26,8.81A4.76,4.76,0,0,1,278.92,108.58Z"/><path class="cls-11" d="M284.86,112a3,3,0,0,1-1.52-.39,3.84,3.84,0,0,1-1.67-3.54v-3.68a2.23,2.23,0,0,0-3.7-2.14l-3.19,1.84a.63.63,0,0,1-.85-.22.64.64,0,0,1,.23-.86l3.19-1.84a3.43,3.43,0,0,1,5.56,3.22v3.68a2.23,2.23,0,0,0,3.71,2.14l15.25-8.81a.62.62,0,0,1,.85.23.63.63,0,0,1-.22.85l-15.26,8.8A4.82,4.82,0,0,1,284.86,112Z"/><path class="cls-11" d="M290.79,115.41a3,3,0,0,1-1.52-.4,3.86,3.86,0,0,1-1.67-3.54v-3.68a2.22,2.22,0,0,0-3.7-2.13l-3.18,1.84a.63.63,0,0,1-.85-.23.62.62,0,0,1,.22-.85l3.19-1.84a3.43,3.43,0,0,1,5.57,3.21v3.68a2.23,2.23,0,0,0,3.7,2.14l15.26-8.81a.62.62,0,1,1,.62,1.08l-15.26,8.81A4.82,4.82,0,0,1,290.79,115.41Z"/><path class="cls-11" d="M296.72,118.82a3,3,0,0,1-1.51-.39,3.85,3.85,0,0,1-1.67-3.54v-3.68a2.23,2.23,0,0,0-3.7-2.14l-3.19,1.84a.62.62,0,0,1-.62-1.08l3.18-1.84a3.44,3.44,0,0,1,5.57,3.22v3.68a2.22,2.22,0,0,0,3.7,2.13l15.26-8.81a.63.63,0,0,1,.85.23.62.62,0,0,1-.23.85l-15.25,8.81A4.82,4.82,0,0,1,296.72,118.82Z"/><path class="cls-11" d="M302.66,122.23a3,3,0,0,1-1.52-.39,3.84,3.84,0,0,1-1.67-3.54v-3.68a2.22,2.22,0,0,0-3.7-2.14l-3.19,1.84a.62.62,0,1,1-.62-1.08l3.19-1.83a3.43,3.43,0,0,1,5.57,3.21v3.68a2.22,2.22,0,0,0,3.7,2.14l15.26-8.81a.62.62,0,1,1,.62,1.08L305,121.51A4.82,4.82,0,0,1,302.66,122.23Z"/><path class="cls-11" d="M195.84,60.79a2.89,2.89,0,0,1-1.51-.4,3.82,3.82,0,0,1-1.67-3.53V53.18A2.22,2.22,0,0,0,189,51l-3.19,1.84a.62.62,0,1,1-.62-1.08L188.33,50a3.44,3.44,0,0,1,5.57,3.22v3.68A2.22,2.22,0,0,0,197.6,59l15.26-8.81a.62.62,0,0,1,.62,1.08l-15.25,8.81A4.82,4.82,0,0,1,195.84,60.79Z"/><path class="cls-11" d="M308.59,125.65a3,3,0,0,1-1.52-.4,3.85,3.85,0,0,1-1.66-3.54V118a2.22,2.22,0,0,0-3.7-2.13l-3.19,1.84a.62.62,0,0,1-.62-1.08l3.18-1.84a3.43,3.43,0,0,1,5.57,3.21v3.68a2.23,2.23,0,0,0,3.7,2.14L325.61,115a.62.62,0,1,1,.62,1.08L311,124.93A4.82,4.82,0,0,1,308.59,125.65Z"/><polygon class="cls-12" points="300.97 118.52 300.97 132.07 183.74 199.75 66.5 132.06 66.5 118.52 300.97 118.52"/><polygon class="cls-13" points="183.74 186.21 66.5 118.52 183.73 50.83 300.97 118.52 183.74 186.21"/><polygon class="cls-14" points="183.74 184.62 67.87 117.73 66.5 118.52 183.74 186.21 300.97 118.52 299.6 117.73 183.74 184.62"/><polygon class="cls-15" points="183.74 170.59 93.56 118.53 183.73 66.47 273.91 118.53 183.74 170.59"/><polygon class="cls-16" points="183.74 170.6 93.56 118.53 183.73 66.47 273.91 118.53 183.74 170.6"/><polygon class="cls-17" points="183.73 53.34 273.91 105.41 273.91 118.53 183.73 66.47 183.73 53.34"/><polygon class="cls-18" points="183.74 66.47 93.56 118.53 93.56 105.41 183.73 53.34 183.74 66.47"/><polygon class="cls-19" points="183.74 157.47 93.56 105.41 183.73 53.34 273.91 105.41 183.74 157.47"/><polygon class="cls-20" points="183.74 126.21 147.7 105.41 183.74 84.6 219.77 105.41 183.74 126.21"/><polygon class="cls-20" points="183.56 151.85 181.48 150.65 183.56 149.45 185.63 150.65 183.56 151.85"/><polygon class="cls-3" points="187.84 149.38 185.76 148.18 187.84 146.98 189.91 148.18 187.84 149.38"/><polygon class="cls-20" points="192.12 146.91 190.04 145.71 192.12 144.5 194.19 145.71 192.12 146.91"/><polygon class="cls-20" points="196.4 144.44 194.32 143.23 196.4 142.03 198.47 143.23 196.4 144.44"/><polygon class="cls-21" points="200.68 141.96 198.6 140.76 200.68 139.56 202.75 140.76 200.68 141.96"/><polygon class="cls-20" points="183.74 86.52 218.11 106.36 219.77 105.41 183.74 84.6 147.7 105.41 149.36 106.36 183.74 86.52"/><polygon class="cls-22" points="183.74 157.47 183.74 170.59 273.91 118.53 273.91 105.41 183.74 157.47"/><polygon class="cls-23" points="93.56 105.41 93.56 118.53 183.74 170.59 183.74 157.47 93.56 105.41"/><polygon class="cls-21" points="183.74 156.03 94.8 104.69 93.56 105.41 183.74 157.47 273.91 105.41 272.67 104.69 183.74 156.03"/><path class="cls-11" d="M325.92,151.12a.58.58,0,0,1-.31-.08l-15.26-8.81a10.78,10.78,0,0,1-4.94-8.57V130a9.57,9.57,0,0,0-4.33-7.49l-3.18-1.83a.64.64,0,0,1-.23-.86.62.62,0,0,1,.85-.22l3.19,1.84a10.78,10.78,0,0,1,4.94,8.56v3.68a9.56,9.56,0,0,0,4.32,7.49L326.23,150a.62.62,0,0,1,.23.85A.63.63,0,0,1,325.92,151.12Z"/><path class="cls-11" d="M213.17,216.09a.6.6,0,0,1-.31-.08L197.6,207.2a10.78,10.78,0,0,1-4.94-8.56V195a9.54,9.54,0,0,0-4.33-7.49l-3.18-1.84a.62.62,0,0,1,.62-1.08l3.19,1.84A10.78,10.78,0,0,1,193.9,195v3.68a9.54,9.54,0,0,0,4.33,7.48l15.25,8.81a.62.62,0,0,1,.23.85A.61.61,0,0,1,213.17,216.09Z"/><path class="cls-11" d="M219.11,212.67a.61.61,0,0,1-.32-.08l-15.25-8.81a10.76,10.76,0,0,1-4.95-8.56v-3.68a9.56,9.56,0,0,0-4.32-7.49l-3.19-1.84a.62.62,0,1,1,.62-1.08l3.19,1.84a10.79,10.79,0,0,1,5,8.57v3.68a9.56,9.56,0,0,0,4.32,7.48l15.26,8.81a.62.62,0,0,1,.23.85A.63.63,0,0,1,219.11,212.67Z"/><path class="cls-11" d="M225,209.26a.59.59,0,0,1-.31-.09l-15.26-8.81a10.78,10.78,0,0,1-4.94-8.56v-3.68a9.54,9.54,0,0,0-4.33-7.49L197,178.79a.62.62,0,0,1,.62-1.08l3.19,1.84a10.78,10.78,0,0,1,4.94,8.57v3.68a9.57,9.57,0,0,0,4.33,7.49l15.25,8.8a.63.63,0,0,1,.23.85A.64.64,0,0,1,225,209.26Z"/><path class="cls-11" d="M231,205.84a.61.61,0,0,1-.31-.09l-15.25-8.81a10.76,10.76,0,0,1-4.95-8.56V184.7a9.56,9.56,0,0,0-4.32-7.49L203,175.37a.62.62,0,1,1,.62-1.08l3.19,1.84a10.79,10.79,0,0,1,5,8.57v3.68a9.56,9.56,0,0,0,4.32,7.49l15.26,8.8a.63.63,0,0,1-.32,1.17Z"/><path class="cls-11" d="M236.91,202.42a.59.59,0,0,1-.31-.09l-15.26-8.81a10.79,10.79,0,0,1-5-8.56v-3.68a9.53,9.53,0,0,0-4.32-7.49L208.88,172a.63.63,0,0,1,.63-1.08l3.18,1.84a10.77,10.77,0,0,1,4.95,8.57V185a9.59,9.59,0,0,0,4.32,7.49l15.26,8.8a.63.63,0,0,1,.23.85A.64.64,0,0,1,236.91,202.42Z"/><path class="cls-11" d="M242.84,199a.61.61,0,0,1-.31-.09l-15.26-8.81a10.78,10.78,0,0,1-4.94-8.56v-3.68a9.57,9.57,0,0,0-4.33-7.49l-3.18-1.84a.62.62,0,1,1,.62-1.08l3.19,1.84a10.8,10.8,0,0,1,4.94,8.57v3.68A9.57,9.57,0,0,0,227.9,189l15.25,8.8a.63.63,0,0,1-.31,1.17Z"/><path class="cls-11" d="M248.78,195.58a.56.56,0,0,1-.31-.09l-15.26-8.81a10.79,10.79,0,0,1-5-8.56v-3.68a9.59,9.59,0,0,0-4.32-7.49l-3.19-1.84a.62.62,0,1,1,.62-1.08l3.19,1.84a10.78,10.78,0,0,1,4.95,8.57v3.68a9.59,9.59,0,0,0,4.32,7.49l15.26,8.8a.64.64,0,0,1,.23.86A.66.66,0,0,1,248.78,195.58Z"/><path class="cls-11" d="M254.71,192.16a.59.59,0,0,1-.31-.09l-15.26-8.8a10.81,10.81,0,0,1-4.94-8.57V171a9.57,9.57,0,0,0-4.33-7.49l-3.18-1.84a.62.62,0,1,1,.62-1.08l3.19,1.84a10.8,10.8,0,0,1,4.94,8.57v3.68a9.57,9.57,0,0,0,4.33,7.49L255,191a.64.64,0,0,1,.23.86A.64.64,0,0,1,254.71,192.16Z"/><path class="cls-11" d="M260.64,188.74a.61.61,0,0,1-.31-.09l-15.25-8.8a10.8,10.8,0,0,1-5-8.57V167.6a9.59,9.59,0,0,0-4.32-7.49l-3.19-1.84a.62.62,0,1,1,.62-1.08l3.19,1.84a10.81,10.81,0,0,1,4.95,8.57v3.68a9.59,9.59,0,0,0,4.32,7.49L261,187.58a.62.62,0,0,1,.22.85A.61.61,0,0,1,260.64,188.74Z"/><path class="cls-11" d="M266.58,185.32a.59.59,0,0,1-.31-.09L251,176.43a10.81,10.81,0,0,1-4.95-8.57v-3.68a9.56,9.56,0,0,0-4.32-7.49l-3.19-1.84a.63.63,0,0,1,.63-1.08l3.18,1.84a10.78,10.78,0,0,1,4.95,8.57v3.68a9.59,9.59,0,0,0,4.32,7.49l15.26,8.81a.62.62,0,0,1,.23.85A.63.63,0,0,1,266.58,185.32Z"/><path class="cls-11" d="M272.51,181.9a.71.71,0,0,1-.31-.08L257,173a10.78,10.78,0,0,1-4.95-8.57v-3.68a9.59,9.59,0,0,0-4.32-7.49l-3.19-1.84a.62.62,0,0,1,.62-1.08l3.19,1.84a10.8,10.8,0,0,1,4.94,8.57v3.68a9.57,9.57,0,0,0,4.33,7.49l15.25,8.81a.62.62,0,0,1,.23.85A.61.61,0,0,1,272.51,181.9Z"/><path class="cls-11" d="M278.45,178.48a.65.65,0,0,1-.31-.08l-15.26-8.81a10.81,10.81,0,0,1-4.95-8.57v-3.68a9.59,9.59,0,0,0-4.32-7.49L250.42,148a.62.62,0,0,1-.22-.85.63.63,0,0,1,.85-.23l3.18,1.84a10.78,10.78,0,0,1,5,8.57V161a9.59,9.59,0,0,0,4.32,7.49l15.26,8.81a.62.62,0,0,1,.23.85A.63.63,0,0,1,278.45,178.48Z"/><path class="cls-11" d="M284.38,175.06a.68.68,0,0,1-.31-.08l-15.26-8.81a10.8,10.8,0,0,1-4.94-8.57v-3.68a9.57,9.57,0,0,0-4.33-7.49l-3.18-1.84a.62.62,0,0,1,.62-1.08l3.19,1.84a10.8,10.8,0,0,1,4.94,8.57v3.68a9.57,9.57,0,0,0,4.33,7.49l15.25,8.81a.62.62,0,0,1,.23.85A.61.61,0,0,1,284.38,175.06Z"/><path class="cls-11" d="M290.32,171.64a.72.72,0,0,1-.32-.08l-15.25-8.81a10.78,10.78,0,0,1-4.95-8.57V150.5a9.59,9.59,0,0,0-4.32-7.49l-3.19-1.84a.62.62,0,0,1,.62-1.08l3.19,1.84a10.82,10.82,0,0,1,4.95,8.57v3.68a9.59,9.59,0,0,0,4.32,7.49l15.26,8.81a.62.62,0,0,1-.31,1.16Z"/><path class="cls-11" d="M296.25,168.22a.68.68,0,0,1-.31-.08l-15.26-8.81a10.8,10.8,0,0,1-4.94-8.57v-3.68a9.57,9.57,0,0,0-4.33-7.49l-3.18-1.84a.62.62,0,1,1,.62-1.07l3.18,1.84a10.76,10.76,0,0,1,5,8.56v3.68a9.59,9.59,0,0,0,4.32,7.49l15.26,8.81a.62.62,0,0,1,.23.85A.63.63,0,0,1,296.25,168.22Z"/><path class="cls-11" d="M302.18,164.8a.71.71,0,0,1-.31-.08l-15.25-8.81a10.78,10.78,0,0,1-4.95-8.57v-3.68a9.59,9.59,0,0,0-4.32-7.49l-3.19-1.84a.62.62,0,0,1-.23-.85.61.61,0,0,1,.85-.22L278,135.1a10.78,10.78,0,0,1,4.94,8.56v3.68a9.57,9.57,0,0,0,4.33,7.49l15.26,8.81a.63.63,0,0,1,.22.85A.61.61,0,0,1,302.18,164.8Z"/><path class="cls-11" d="M308.12,161.38a.65.65,0,0,1-.31-.08l-15.26-8.81a10.81,10.81,0,0,1-4.95-8.57v-3.68a9.59,9.59,0,0,0-4.32-7.49l-3.19-1.84a.62.62,0,0,1,.63-1.07l3.18,1.84a10.76,10.76,0,0,1,5,8.56v3.68a9.57,9.57,0,0,0,4.32,7.49l15.26,8.81a.62.62,0,0,1,.23.85A.63.63,0,0,1,308.12,161.38Z"/><path class="cls-11" d="M314.05,158a.71.71,0,0,1-.31-.08l-15.26-8.81a10.8,10.8,0,0,1-4.94-8.57v-3.68a9.57,9.57,0,0,0-4.33-7.49L286,127.49a.62.62,0,1,1,.62-1.07l3.19,1.84a10.78,10.78,0,0,1,4.94,8.56v3.68a9.54,9.54,0,0,0,4.33,7.49l15.25,8.81a.62.62,0,0,1,.23.85A.61.61,0,0,1,314.05,158Z"/><path class="cls-11" d="M320,154.54a.61.61,0,0,1-.32-.08l-15.25-8.81a10.77,10.77,0,0,1-4.95-8.57V133.4a9.59,9.59,0,0,0-4.32-7.49L292,124.08a.64.64,0,0,1-.23-.86.62.62,0,0,1,.85-.22l3.19,1.84a10.79,10.79,0,0,1,5,8.56v3.68a9.56,9.56,0,0,0,4.32,7.49l15.26,8.81a.62.62,0,0,1,.23.85A.63.63,0,0,1,320,154.54Z"/><path class="cls-11" d="M148,212.67a.63.63,0,0,1-.54-.31.62.62,0,0,1,.23-.85l15.25-8.81a9.54,9.54,0,0,0,4.33-7.48v-3.68a10.77,10.77,0,0,1,4.95-8.57l3.18-1.84a.62.62,0,0,1,.62,1.08l-3.18,1.84a9.54,9.54,0,0,0-4.33,7.49v3.68a10.78,10.78,0,0,1-4.94,8.56l-15.26,8.81A.58.58,0,0,1,148,212.67Z"/><path class="cls-11" d="M142,209.26a.63.63,0,0,1-.32-1.17l15.26-8.8a9.56,9.56,0,0,0,4.32-7.49v-3.68a10.79,10.79,0,0,1,4.95-8.57l3.19-1.84a.62.62,0,1,1,.62,1.08l-3.19,1.84a9.56,9.56,0,0,0-4.32,7.49v3.68a10.76,10.76,0,0,1-4.95,8.56l-15.25,8.81A.61.61,0,0,1,142,209.26Z"/><path class="cls-11" d="M136.08,205.84a.64.64,0,0,1-.54-.32.63.63,0,0,1,.23-.85l15.26-8.8a9.59,9.59,0,0,0,4.32-7.49V184.7a10.77,10.77,0,0,1,5-8.57l3.18-1.84a.63.63,0,0,1,.63,1.08l-3.19,1.84a9.56,9.56,0,0,0-4.32,7.49v3.68a10.79,10.79,0,0,1-4.95,8.56l-15.26,8.81A.59.59,0,0,1,136.08,205.84Z"/><path class="cls-11" d="M130.15,202.42a.62.62,0,0,1-.54-.32.63.63,0,0,1,.23-.85l15.25-8.8a9.57,9.57,0,0,0,4.33-7.49v-3.68a10.78,10.78,0,0,1,4.94-8.57l3.19-1.84a.62.62,0,1,1,.62,1.08L155,173.79a9.54,9.54,0,0,0-4.33,7.49V185a10.78,10.78,0,0,1-4.94,8.56l-15.26,8.81A.61.61,0,0,1,130.15,202.42Z"/><path class="cls-11" d="M124.21,199a.66.66,0,0,1-.54-.31.64.64,0,0,1,.23-.86l15.26-8.8a9.59,9.59,0,0,0,4.32-7.49v-3.68a10.78,10.78,0,0,1,5-8.57l3.18-1.84a.64.64,0,0,1,.86.23.62.62,0,0,1-.23.85l-3.19,1.84a9.59,9.59,0,0,0-4.32,7.49v3.68a10.76,10.76,0,0,1-4.95,8.56l-15.26,8.81A.56.56,0,0,1,124.21,199Z"/><path class="cls-11" d="M118.28,195.58a.64.64,0,0,1-.54-.31.64.64,0,0,1,.23-.86l15.25-8.8a9.57,9.57,0,0,0,4.33-7.49v-3.68a10.8,10.8,0,0,1,4.94-8.57l3.19-1.84a.62.62,0,0,1,.62,1.08L143.12,167a9.57,9.57,0,0,0-4.33,7.49v3.68a10.78,10.78,0,0,1-4.94,8.56l-15.26,8.81A.59.59,0,0,1,118.28,195.58Z"/><path class="cls-11" d="M112.35,192.16A.63.63,0,0,1,112,191l15.26-8.8a9.59,9.59,0,0,0,4.32-7.49V171a10.81,10.81,0,0,1,4.95-8.57l3.19-1.84a.62.62,0,0,1,.62,1.08l-3.19,1.84a9.59,9.59,0,0,0-4.32,7.49v3.68a10.8,10.8,0,0,1-5,8.57l-15.25,8.8A.61.61,0,0,1,112.35,192.16Z"/><path class="cls-11" d="M106.41,188.74a.63.63,0,0,1-.54-.31.62.62,0,0,1,.23-.85l15.26-8.81a9.59,9.59,0,0,0,4.32-7.49V167.6a10.78,10.78,0,0,1,4.95-8.57l3.18-1.84a.63.63,0,0,1,.63,1.08l-3.19,1.84a9.56,9.56,0,0,0-4.32,7.49v3.68a10.82,10.82,0,0,1-5,8.57l-15.26,8.8A.59.59,0,0,1,106.41,188.74Z"/><path class="cls-11" d="M100.48,185.32a.61.61,0,0,1-.54-.31.62.62,0,0,1,.23-.85l15.25-8.81a9.57,9.57,0,0,0,4.33-7.49v-3.68a10.8,10.8,0,0,1,4.94-8.57l3.19-1.84a.62.62,0,0,1,.62,1.08l-3.19,1.84a9.59,9.59,0,0,0-4.32,7.49v3.68a10.78,10.78,0,0,1-4.95,8.57l-15.25,8.8A.61.61,0,0,1,100.48,185.32Z"/><path class="cls-11" d="M94.54,181.9a.63.63,0,0,1-.54-.31.62.62,0,0,1,.23-.85l15.26-8.81a9.59,9.59,0,0,0,4.32-7.49v-3.68a10.78,10.78,0,0,1,5-8.57l3.18-1.84a.63.63,0,0,1,.63,1.08l-3.19,1.84a9.59,9.59,0,0,0-4.32,7.49v3.68a10.81,10.81,0,0,1-5,8.57l-15.26,8.81A.65.65,0,0,1,94.54,181.9Z"/><path class="cls-11" d="M88.61,178.48a.61.61,0,0,1-.54-.31.62.62,0,0,1,.23-.85l15.25-8.81a9.57,9.57,0,0,0,4.33-7.49v-3.68a10.8,10.8,0,0,1,4.94-8.57l3.19-1.84a.63.63,0,0,1,.85.23.62.62,0,0,1-.23.85l-3.18,1.84a9.57,9.57,0,0,0-4.33,7.49V161a10.8,10.8,0,0,1-4.94,8.57L88.92,178.4A.71.71,0,0,1,88.61,178.48Z"/><path class="cls-11" d="M82.67,175.06a.6.6,0,0,1-.53-.31.62.62,0,0,1,.22-.85l15.26-8.81a9.59,9.59,0,0,0,4.32-7.49v-3.68a10.81,10.81,0,0,1,5-8.57l3.19-1.84a.62.62,0,0,1,.62,1.08l-3.19,1.84a9.59,9.59,0,0,0-4.32,7.49v3.68a10.78,10.78,0,0,1-5,8.57L83,175A.72.72,0,0,1,82.67,175.06Z"/><path class="cls-11" d="M76.74,171.64a.63.63,0,0,1-.54-.31.62.62,0,0,1,.23-.85l15.26-8.81A9.59,9.59,0,0,0,96,154.18V150.5a10.8,10.8,0,0,1,4.95-8.57l3.18-1.84a.63.63,0,0,1,.63,1.08L101.58,143a9.57,9.57,0,0,0-4.33,7.49v3.68a10.8,10.8,0,0,1-4.94,8.57l-15.26,8.81A.68.68,0,0,1,76.74,171.64Z"/><path class="cls-11" d="M70.81,168.22a.61.61,0,0,1-.54-.31.63.63,0,0,1,.22-.85l15.26-8.81a9.57,9.57,0,0,0,4.33-7.49v-3.68A10.78,10.78,0,0,1,95,138.52l3.19-1.84a.62.62,0,1,1,.62,1.07l-3.19,1.84a9.59,9.59,0,0,0-4.32,7.49v3.68a10.78,10.78,0,0,1-4.95,8.57l-15.25,8.81A.71.71,0,0,1,70.81,168.22Z"/><path class="cls-11" d="M64.87,164.8a.63.63,0,0,1-.54-.31.62.62,0,0,1,.23-.85l15.26-8.81a9.59,9.59,0,0,0,4.32-7.49v-3.68a10.76,10.76,0,0,1,5-8.56l3.18-1.84a.62.62,0,0,1,.63,1.07l-3.19,1.84a9.59,9.59,0,0,0-4.32,7.49v3.68a10.81,10.81,0,0,1-5,8.57l-15.26,8.81A.65.65,0,0,1,64.87,164.8Z"/><path class="cls-11" d="M58.94,161.38a.61.61,0,0,1-.54-.31.62.62,0,0,1,.23-.85l15.25-8.81a9.56,9.56,0,0,0,4.33-7.49v-3.68a10.78,10.78,0,0,1,4.94-8.56l3.19-1.84a.62.62,0,1,1,.62,1.07l-3.18,1.84a9.57,9.57,0,0,0-4.33,7.49v3.68a10.8,10.8,0,0,1-4.94,8.57L59.25,161.3A.71.71,0,0,1,58.94,161.38Z"/><path class="cls-11" d="M53,158a.63.63,0,0,1-.54-.31.62.62,0,0,1,.23-.85L68,148a9.56,9.56,0,0,0,4.32-7.49v-3.68a10.79,10.79,0,0,1,5-8.56l3.19-1.84a.62.62,0,1,1,.62,1.07l-3.19,1.84a9.59,9.59,0,0,0-4.32,7.49v3.68a10.78,10.78,0,0,1-5,8.57l-15.25,8.81A.72.72,0,0,1,53,158Z"/><path class="cls-11" d="M47.07,154.54a.63.63,0,0,1-.54-.31.62.62,0,0,1,.23-.85L62,144.57a9.56,9.56,0,0,0,4.32-7.49V133.4a10.76,10.76,0,0,1,5-8.56L74.47,123a.63.63,0,0,1,.85.22.64.64,0,0,1-.23.86l-3.18,1.83a9.57,9.57,0,0,0-4.33,7.49v3.68a10.78,10.78,0,0,1-4.94,8.57l-15.26,8.81A.58.58,0,0,1,47.07,154.54Z"/><path class="cls-11" d="M153.88,216.09a.63.63,0,0,1-.54-.31.62.62,0,0,1,.23-.85l15.26-8.81a9.56,9.56,0,0,0,4.32-7.48V195a10.79,10.79,0,0,1,4.95-8.57l3.19-1.84a.62.62,0,0,1,.62,1.08l-3.19,1.84A9.56,9.56,0,0,0,174.4,195v3.68a10.76,10.76,0,0,1-5,8.56L154.2,216A.61.61,0,0,1,153.88,216.09Z"/><path class="cls-11" d="M41.14,151.12a.61.61,0,0,1-.54-.31.62.62,0,0,1,.22-.85l15.26-8.81a9.53,9.53,0,0,0,4.32-7.49V130a10.79,10.79,0,0,1,4.95-8.56l3.19-1.84a.63.63,0,0,1,.85.22.64.64,0,0,1-.23.86L66,122.49A9.59,9.59,0,0,0,61.65,130v3.68a10.77,10.77,0,0,1-4.95,8.57L41.45,151A.6.6,0,0,1,41.14,151.12Z"/></g></g></g></svg>