<svg xmlns="http://www.w3.org/2000/svg" xmlns:xlink="http://www.w3.org/1999/xlink" viewBox="0 0 261 331"><defs><style>.cls-1{fill:url(#linear-gradient);}</style><linearGradient id="linear-gradient" x1="130.5" y1="331" x2="130.5" gradientUnits="userSpaceOnUse"><stop offset="0" stop-color="aqua"/><stop offset="1" stop-color="#0071bc"/></linearGradient></defs><title>logo</title><g id="Layer_2" data-name="Layer 2"><g id="Layer_3" data-name="Layer 3"><path class="cls-1" d="M261,24.63A24.63,24.63,0,0,0,236.37,0H24.63A24.63,24.63,0,0,0,0,24.63V306.37A24.63,24.63,0,0,0,24.63,331H236.37A24.63,24.63,0,0,0,261,306.37ZM105.24,239.32a1.64,1.64,0,0,1,1-.42c5.33-.45,11.23-.65,19.14-.65,3.69,0,7.48,0,11.15.09s7.43.08,11.1.08c2.83,0,5.34,0,7.66-.08a1.2,1.2,0,0,1,.38,0,4,4,0,0,1,2.6,1.85c2,3.23.65,9.52.35,10.74a1.65,1.65,0,0,1-1.52,1.27c-7.78.46-16.66.7-25.69.7s-17.9-.24-25.68-.7a1.67,1.67,0,0,1-1.51-1.22C103.67,249.19,102.37,241.85,105.24,239.32Zm-1-16.66a1.65,1.65,0,0,1,1.39-1C111,221.21,117,221,125,221c3.72,0,7.55,0,11.26.08s7.51.09,11.22.09c2.87,0,5.41,0,7.76-.08a1.69,1.69,0,0,1,.67.12,5.58,5.58,0,0,1,2.35,1.63,1.73,1.73,0,0,1,.2.32c1.11,2.36,1.11,8,0,10.32a1.69,1.69,0,0,1-1.07.9A52.7,52.7,0,0,1,144,235.75c-2.06,0-4.2-.05-6.27-.1s-4.24-.09-6.34-.09-4.25.05-6.34.09-4.2.1-6.26.1a52.78,52.78,0,0,1-13.43-1.36,1.69,1.69,0,0,1-1.08-.94C103.18,231,103.18,225.13,104.26,222.66ZM148,275.51c-1.85,7.18-9.69,10.44-16.64,10.44s-14.78-3.14-16.63-10.33a1.34,1.34,0,0,1,.3-1.28c.31-.41.8-.34,1.31-.34h30c.52,0,1-.05,1.32.36A1.11,1.11,0,0,1,148,275.51Zm10.55-7.83a1.62,1.62,0,0,1-1.16,1.09C153,270,147.84,270,143.84,270h0c-2,0-4.15.07-6.2,0s-4.19,0-6.27,0-4.21,0-6.27.09-4.16.08-6.19.08a54.18,54.18,0,0,1-13.56-1.34,1.67,1.67,0,0,1-1.09-.95c-1.08-2.47-1.08-8.32,0-10.79a1.66,1.66,0,0,1,1.39-1c5.45-.46,11.49-.66,19.57-.66,3.77,0,7.65,0,11.39.09s7.6.08,11.35.08c2.9,0,5.47,0,7.85-.07a1.48,1.48,0,0,1,.47,0,3.47,3.47,0,0,1,2.19,1.75C160.16,260.39,159,266.26,158.56,267.68Zm39-148.76c-1.31,12-5.7,20.08-10.36,28.61-1.4,2.58-2.86,5.22-4.26,8.07-6.16,12.45-12,25-15.44,41.81-1.88,9.15-2.91,14.08-8.63,17.16-2.11,1.14-5.89,1.43-12.25,1.43h0c-2.77,0-5.66.12-8.45,0-2.48-.08-4.81.06-6.79.06-2.34,0-4.89.15-7.58.3s-5.65.32-8.39.32c-5.15,0-8.79-.6-11.46-1.9-6.26-3-7.47-8.22-9.87-18.53l-.48-2.05a176.23,176.23,0,0,0-8.25-26.43,169,169,0,0,0-8.11-16c-5.76-10.38-11.2-20.18-12.6-33.46-1.43-13.64,2.25-28.77,6.28-37.06,8.29-17,28.9-36.93,59.72-36.93a71.75,71.75,0,0,1,7.59.4,67.77,67.77,0,0,1,45.22,24.76A66.5,66.5,0,0,1,197.55,118.92Z"/></g></g></svg>