<?xml version="1.0" encoding="utf-8"?>
<!-- Generator: Adobe Illustrator 18.1.1, SVG Export Plug-In . SVG Version: 6.00 Build 0)  -->
<svg version="1.1" xmlns="http://www.w3.org/2000/svg" xmlns:xlink="http://www.w3.org/1999/xlink" x="0px" y="0px" width="1096px"
	 height="780px" viewBox="0 0 1096 780" enable-background="new 0 0 1096 780" xml:space="preserve">
<g id="Layer_3">
	<rect fill="#FFFFFF" width="1096" height="780"/>
	<linearGradient id="SVGID_1_" gradientUnits="userSpaceOnUse" x1="196.5" y1="363" x2="196.5" y2="32">
		<stop  offset="0" style="stop-color:#8CC63F"/>
		<stop  offset="1" style="stop-color:#009245"/>
	</linearGradient>
	<path fill="url(#SVGID_1_)" d="M257.3,150.4c-1.3,15.1-8.5,26.4-15.6,37.3c-6.6,10.2-13.4,20.8-14.9,34.1c-0.2,1.9-0.2,3.7-0.2,5.4
		c0,2.7,0,5-0.8,6.9c-1.4,3.4-4.3,5.7-9.1,7.4c1.3-17.8,3-33.6,5.2-55.8c7.6-2.4,15.7-8.3,15.4-18c-0.2-6.3-5.4-13.4-12-13.4l-0.2,0
		c-10,0.2-12.4,11.9-13.3,21.4c-0.2,0-0.5,0-0.7,0c-0.5,0-1,0-1.5,0c-0.6,0-1.2,0-1.9-0.1c2.5-5.4,3.6-13,0.9-18.6
		c-1.7-3.6-4.8-5.9-8.9-6.4c-5.3-0.7-9.4,0.9-11.8,4.6c-3.3,5-2.8,12.9-0.5,18.1c0.2,0.5,0.5,1,0.9,1.4c0.1,0.2,0.4,0.5,0.5,0.8
		c-0.3,0.1-0.8,0.2-1.7,0.2c-0.6,0-1.1,0-1.7-0.1c-0.5,0-1,0-1.4-0.1c-1-8.3-3.2-21.3-13.7-21.3l-0.2,0c-6.1,0.1-11,6.4-11.6,12
		c-1.3,12.3,10.2,17.7,15.3,19.8c0.5,7.8,1.2,8.7,1.9,16.1c1.1,12.6,2.3,25.6,2.8,39.1c-3.6-1.4-6.5-2.9-8.1-5.6
		c-1.2-2.1-1.3-4.8-1.3-7.9c0-1.5-0.1-3.1-0.2-4.8c-1.4-14-8.5-25.1-15.3-35.9c-0.7-1.1-1.4-2.2-2.1-3.4
		c-6.9-11.1-13.7-23.5-13.8-41.2c-0.1-33.6,19.9-48.8,36.7-55.7c7.4-3,15.3-4.6,23.5-4.6c15.4,0,30.5,5.7,40.6,15.2
		C253.7,112.1,259.2,127.4,257.3,150.4z M200.1,185.7c-1-0.3-1.9-0.6-2.6-0.7c-0.7,0.2-1.7,0.5-2.4,0.7c-2.9,0.9-7.1,1.9-10.1,1.9v0
		c0,0,0.1,0.1,0,0.1c1.2,11.8,2.3,17.3,3.2,29.1c0.7,8.5,1.5,17.3,2.2,26.3h14.3l0-0.6c1.4-20.4,2.8-34.8,5.1-54.7
		c-0.2,0-0.4-0.2-0.6-0.2C205.7,187.5,202.4,186.4,200.1,185.7z M199.8,163c-0.2-0.6-2.1-4.6-2.3-4.6c-0.1,0-0.2,4-0.6,4.1
		c-0.6,1.9-0.2,8.8,0.6,10.6C198.2,171.4,200.3,164.4,199.8,163z M227.6,169.2c0.2-0.8-2-6-2.2-6.6c-0.6,0.9-4.5,11.5-4.8,13.5
		C221.2,175.4,227.4,170,227.6,169.2z M327,338.4c0,13.6-11,24.6-24.6,24.6H90.6C77,363,66,352,66,338.4V56.6C66,43,77,32,90.6,32
		h211.7C316,32,327,43,327,56.6V338.4z M220,308.9c-0.5-2.4-2.5-4.2-5.5-5.1c-1.1-0.3-2.2-0.5-3.1-0.5c-4,0-6,2.1-7.6,4.2
		c-1.8,2.4-3.1,3.5-6.2,3.5c0,0,0,0,0,0c-0.6,0-1.3,0.4-2,0.3c-2-0.3-3-1.4-4.4-3.4c-1.5-2.1-3.3-4.6-7.3-4.9c-0.5,0-0.9,0-1.3,0
		c-5.3,0-7,2.4-7.5,3.9c-1.9,5.5,5.9,14.3,8.9,16.1c3.7,2.1,8.6,3.3,13.6,3.3c5.6,0,10.8-1.4,14.7-3.9
		C216.2,319.7,221,313.7,220,308.9z M229.9,291.1c-3.6-4.2-13.1-5.3-23.4-6c-1.9-0.1-3.5-0.2-4.5-0.4c-2.9-0.4-5.8-0.9-8.9-1.5
		c-5.5-1.1-11.1-2.2-17.6-2.2c-0.9,0-1.8,0-2.6,0.1c-2.9,0.1-9,0.4-9.2,6.1c-0.2,6.8,13,8.2,25.9,9.7c2.1,0.2,4.2,0.5,6.1,0.7
		c1,0.1,2.5,0.6,4.2,0.9c5.5,0.9,13.8,2.5,20.3,2.5c0,0,0,0,0,0c2.4,0,9.6-0.3,10.9-4.5C231.6,294.6,231.2,292.6,229.9,291.1z
		 M230.6,272.8c-2.6-4.2-22.7-6.1-24.3-6.4c-4.1-0.5-23.6-3.3-28.8-3.7c-1.7-0.1-3.1-0.2-4.3-0.2c-6,0-9.2,1.9-9.5,5.6
		c-0.7,7.6,15.9,9.1,26.8,10.1c1.8,0.2,3.3,0.3,4.4,0.4c3.3,0.4,6.4,0.7,9.5,1c2.9,0.3,5.7,0.5,8.4,0.9c1.2,0.2,2.4,0.2,3.7,0.5
		c2.2,0.4,4.4,0.7,6.6,0.7c0,0,0,0,0,0c2.6,0,4.8-0.5,6.5-1.8c0.2-0.1,0.4-0.2,0.5-0.4C231.6,276.9,231.8,274.7,230.6,272.8z
		 M268.3,119.2c-5.4-17.3-16.4-32.1-30.2-40.5c-9.4-5.7-22.1-9.6-35-10.6c-18.3-1.5-36.6,3.5-50.7,13.8
		c-11.9,8.7-21.5,23.1-26.2,39.4c-3.7,13-6,33.2,4.2,55.1c2.7,5.9,6.4,11.4,9.9,16.7c5.7,8.6,11.6,17.5,13.8,28.1
		c0.8,3.7,0.8,6.9,0.9,9.7c0.1,3.1,0.1,5.8,1,8.3c2.3,6.4,9.6,13.1,17,15.8c5,1.8,11.8,2,18.2,2c0.9,0,15,0.2,16.8,0.2c0,0,0,0,0,0
		c4.3,0,9.2-0.2,13.2-1.5c8.3-2.7,15.3-10.1,17.6-15.7c1.2-2.9,1.4-6.7,1.7-10.7c0.2-2.7,0.4-5.5,0.8-8c2.3-11.6,7.8-19.7,13.6-28.3
		c3.8-5.6,7.8-11.5,10.7-18.4C273.1,157.2,274,137.6,268.3,119.2z M176.3,177.5c-0.5-3.5-5.5-9.9-7.4-13.3
		C168.7,164.7,166,174.9,176.3,177.5z"/>
	<linearGradient id="SVGID_2_" gradientUnits="userSpaceOnUse" x1="550.5" y1="363" x2="550.5" y2="32">
		<stop  offset="0" style="stop-color:#FCEE21"/>
		<stop  offset="1" style="stop-color:#F7931E"/>
	</linearGradient>
	<path fill="url(#SVGID_2_)" d="M681,56.6C681,43,670,32,656.4,32H444.6C431,32,420,43,420,56.6v281.7c0,13.6,11,24.6,24.6,24.6
		h211.7c13.6,0,24.6-11,24.6-24.6V56.6z M513.1,101.4l0.5-0.2c2-0.7,4.6-1.7,7.4-2.7c8.2-3.2,18.5-7.1,24.7-7.1c1.1,0,2,0.1,2.8,0.3
		c4.4,1.2,8.3,5.9,6.7,12c-1.4,5.8-9.6,8.3-16.8,10.6c-1.3,0.4-2.6,0.8-3.7,1.2c-1.7,0.6-3.5,1.2-5.2,1.8c-1.9,0.7-3.9,1.4-5.9,2.1
		c-0.9,0.3-1.8,0.6-2.7,1c-3.4,1.2-6.9,2.5-9.5,2.5c-0.2,0-0.4,0-0.6,0c-5.8-0.5-9.4-6.6-9.3-10.6
		C501.5,105.3,507.1,103.4,513.1,101.4z M501.3,140.2c0-0.1,0-0.1,0-0.2c0-0.1,0-0.2,0-0.2c0.4-6.6,5.9-8.4,11.7-10.3l0.5-0.2
		c2-0.7,4.6-1.7,7.4-2.7c5.9-2.3,12.9-5,18.7-6.3c8.8-3.1,17.7-6.2,25.6-9c1.6-0.6,3.4-1.3,5.3-2.1c5.6-2.3,12-4.9,17-4.9
		c0.9,0,1.8,0.1,2.6,0.3c5.8,1.4,8.5,5.8,7.4,11.9c-1.1,5.9-9.4,8.5-16.1,10.6c-1.4,0.4-2.7,0.8-3.9,1.3c-6.6,2.3-13,4.6-19.1,6.8
		c-3.4,1.2-6.8,2.4-10.2,3.6c-3,1.5-6.5,2.6-9.8,3.6c-0.9,0.3-1.8,0.6-2.6,0.8c-2.5,0.9-5.1,1.8-7.6,2.6c-1.5,0.6-3.1,1.1-4.7,1.6
		c-0.9,0.3-1.8,0.6-2.7,1c-3.4,1.2-6.9,2.5-9.5,2.5c-0.2,0-0.4,0-0.6,0c-0.6-0.1-1.1-0.2-1.6-0.3c-4-1-7.5-5.6-7.7-9.9
		C501.3,140.5,501.3,140.4,501.3,140.2C501.3,140.2,501.3,140.2,501.3,140.2z M597.5,144.5c-1.1,5.9-9.4,8.5-16.1,10.6
		c-1.4,0.4-2.7,0.8-3.9,1.3c-6.6,2.3-13,4.6-19.1,6.8c-12.3,4.4-23.9,8.5-36,12.7c-0.6,0.2-1.1,0.4-1.7,0.6
		c-3.3,1.2-6.8,2.4-9.7,2.4c-0.6,0-1.1,0-1.6-0.1c-4.4-0.8-8.3-6-8-10.6c0.3-6.7,8.6-9.5,16.6-12.2c1-0.3,1.9-0.6,2.9-1
		c5.2-1.8,10.5-3.7,15.9-5.6c9.8-3.4,19.8-6.9,28.6-10c1.6-0.6,3.4-1.3,5.3-2.1c5.6-2.3,12-4.9,17-4.9c0.9,0,1.8,0.1,2.6,0.3
		C595.9,133.9,598.7,138.4,597.5,144.5z M569.8,213.9c0.6,0,1.2-0.1,1.8-0.1c0.6-0.1,1.3-0.1,1.9-0.1l0.2,0c1.8,0,3.7,0,5.9,0
		c2.5,0,5,0,7.4,0c4,0,7.9-0.1,11.7,0c0.5,0,0.9,0.2,1.2,0.6c0.3,0.4,0.5,0.8,0.4,1.3c-0.8,7-0.3,11.8,0.2,16.3
		c0.5,5,1,9.6-0.2,16.6c-1.8,10.7-9.5,17.1-23.8,19.5c0.5,8.2,0.2,16.2-3.9,20.8c-1.8,2.1-4.3,3.3-7.4,3.8
		c-1.2,7-8.6,10.7-15.7,10.7c-2.4,0-4.8-0.4-7-1.2c-4.2-1.6-5.7-5.1-7-8.2c-0.2-0.6-0.5-1.2-0.7-1.7c-3-0.2-5.5-1.3-7.3-3.1
		c-4.4-4.5-4.2-13.1-3.9-21.6c-8.8-1.5-14.2-4.5-18-9.9c-5.4-7.7-4.9-15.4-4.2-24.3c0.4-5.2,0.8-11,0-17.6c-0.1-0.5,0.1-0.9,0.4-1.2
		c0.3-0.4,0.8-0.4,1.2-0.4h26v-5.2c-3-0.7-5.4-1-8.5-1.4c-8.8-1.1-19.8-2.5-19.3-12.7c0.4-6.9,8.4-9.5,16.2-12
		c1.1-0.4,2.3-0.7,3.4-1.1c5-1.7,10.2-3.6,15.7-5.5c9.8-3.5,20-7.1,28.9-10.1c1.3-0.4,3-1.1,4.9-1.9c5.5-2.3,12.4-5.1,17.9-5.1
		c5.3,0,8.6,2.7,9.4,7.7c1.4,8.9-5,11.1-10.7,13c-0.5,0.2-1,0.3-1.6,0.5c-13,4.6-21.9,7.6-33.1,11.5l-6,2.1c1.2,1.1,2.3,2.5,2.9,5.1
		c0.1,0.6,0.2,1.1,0.2,1.7c2.8-4,9-5.6,15-7.2c1.7-0.5,3.3-0.9,4.9-1.4c2.1-0.7,4.3-1.3,6.5-1.9c1.9-0.5,3.7-1,5.2-1.5
		c0.9-0.3,1.9-0.7,2.9-1c2.4-0.9,5.2-2,8-2c0.8,0,1.5,0.1,2.2,0.2c2.3,0.5,4.2,2.1,5.6,4.5c1.6,2.7,2,6.1,1.2,8.8
		c-1.6,5.2-8.8,7.2-14,8.7c-1,0.3-1.9,0.5-2.7,0.8c-1.8,0.6-3.5,1.1-5.1,1.5c-3.1,0.9-6.1,1.8-8.7,2.9c-0.4,0.2-0.9,0.3-1.4,0.4
		c-0.2,0-0.6,0.1-0.9,0.2C568.3,213.8,568.8,213.9,569.8,213.9z"/>
	<linearGradient id="SVGID_3_" gradientUnits="userSpaceOnUse" x1="196.5" y1="716" x2="196.5" y2="385">
		<stop  offset="0" style="stop-color:#FF8D7D"/>
		<stop  offset="1" style="stop-color:#FF469E"/>
	</linearGradient>
	<path fill="url(#SVGID_3_)" d="M183.2,461c2.1,2.4,1.6,11.2,1.3,17c-0.1,1.9-0.5,3.9-0.5,5.4V607h-4V482.7c0-1.5,0-3.3-0.1-5.2
		c-0.3-5.6-0.6-14.3,1.5-16.5c0.3-0.3,0.5-0.7,0.9-0.7C182.7,460.3,182.9,460.7,183.2,461z M327,691.4c0,13.6-11,24.6-24.6,24.6
		H90.6C77,716,66,705,66,691.4V409.6C66,396,77,385,90.6,385h211.7c13.6,0,24.6,11,24.6,24.6V691.4z M244,609.4
		c0-0.9-0.9-2.4-1.8-2.4h-12c0.1-17,0.9-135.3,0-145c-1.3-13.2-9.7-21.5-21.4-21.5c-2.5,0-5.2,0.4-8,1.2c-0.7,0.2-1.2,0.9-1.2,1.7
		c0,0.1,0,0.2,0,0.3c0,0.5,0.3,1.1,0.8,1.3c4.2,2.8,6.8,7.7,6.8,12.9c0,0.3,0,0.5,0,0.8c0,0.8,0.5,1.6,1.3,1.8
		c0.5,0.1,0.9,0.1,1.3,0.1c0.1,0,0.3,0,0.4,0c0.8,21.6,0.7,71.6,0.5,101.4c-0.1,16.6-0.1,31.9,0,44.9H203V483.3
		c0-2.8,0.3-5.8,0.4-8.6c0.3-7.1,0.8-13.7-0.6-19c-2.7-10.2-12.4-14.7-20.8-14.7c-8.9,0-18.9,5.1-20.9,16.6
		c-1,5.4-0.6,11.7-0.3,18.3c0.2,3.2,0.2,6.6,0.2,9.7V607h-8.9c-0.9,0-2.1,1.5-2.1,2.4v17.8c0,0.4,0.3,0.7,0.5,1
		c2.8,3.7,7.3,5.6,11.5,7.5c1.8,0.8,3.4,1.5,5,2.4c-0.7,6.4,0.3,11.2,3,14.3c2.4,2.7,6,4.1,10.9,4.1c1.1,0,2.3-0.1,3.6-0.2
		c0,0.4,0,0.9-0.1,1.2c-0.1,0.9-0.2,1.2,0,2c0.2,0.8,0.8,0.5,1.6,0.5h22.2c0.9,0,1.8,0.9,1.8,0v-3.7c0,0.1,2.1-0.3,3.1-0.3
		c0,0,0,0,0,0c5.1,0,8.9-1.2,11.4-4c2.6-3,3.5-7.5,2.8-13.6c1.8-1.4,4-2.4,6.3-3.4c3.7-1.7,7.8-3.4,10.1-6.9
		c0.2-0.3,0.4-0.6,0.4-0.9V609.4z"/>
	<linearGradient id="SVGID_4_" gradientUnits="userSpaceOnUse" x1="898.5" y1="363" x2="898.5" y2="32">
		<stop  offset="0" style="stop-color:#00FFFF"/>
		<stop  offset="1" style="stop-color:#0071BC"/>
	</linearGradient>
	<path fill="url(#SVGID_4_)" d="M1029,56.6c0-13.6-11-24.6-24.6-24.6H792.6C779,32,768,43,768,56.6v281.7c0,13.6,11,24.6,24.6,24.6
		h211.7c13.6,0,24.6-11,24.6-24.6V56.6z M873.2,271.3c0.3-0.2,0.6-0.4,1-0.4c5.3-0.5,11.2-0.7,19.1-0.7c3.7,0,7.5,0,11.1,0.1
		c3.7,0,7.4,0.1,11.1,0.1c2.8,0,5.3,0,7.7-0.1c0.1,0,0.3,0,0.4,0c1.1,0.2,2,0.9,2.6,1.9c2,3.2,0.6,9.5,0.4,10.7
		c-0.2,0.7-0.8,1.2-1.5,1.3c-7.8,0.5-16.7,0.7-25.7,0.7c-9,0-17.9-0.2-25.7-0.7c-0.7,0-1.3-0.5-1.5-1.2
		C871.7,281.2,870.4,273.8,873.2,271.3z M872.3,254.7c0.2-0.6,0.8-0.9,1.4-1c5.4-0.5,11.4-0.7,19.4-0.7c3.7,0,7.6,0,11.3,0.1
		c3.7,0,7.5,0.1,11.2,0.1c2.9,0,5.4,0,7.8-0.1c0.2,0,0.5,0,0.7,0.1c0.7,0.3,1.7,0.8,2.3,1.6c0.1,0.1,0.1,0.2,0.2,0.3
		c1.1,2.4,1.1,8,0,10.3c-0.2,0.4-0.6,0.8-1.1,0.9c-4.4,1.2-9.5,1.4-13.4,1.4c-2.1,0-4.2,0-6.3-0.1c-2.1,0-4.2-0.1-6.3-0.1
		c-2.1,0-4.3,0-6.3,0.1c-2.1,0-4.2,0.1-6.3,0.1c-4,0-9.1-0.2-13.4-1.4c-0.5-0.1-0.9-0.5-1.1-0.9C871.2,263,871.2,257.1,872.3,254.7z
		 M916,307.5c-1.9,7.2-9.7,10.4-16.6,10.4c-6.9,0-14.8-3.1-16.6-10.3c-0.1-0.5,0-0.9,0.3-1.3c0.3-0.4,0.8-0.3,1.3-0.3h30
		c0.5,0,1-0.1,1.3,0.4C916,306.8,916.1,307,916,307.5z M926.6,299.7c-0.2,0.6-0.6,0.9-1.2,1.1c-4.4,1.2-9.6,1.2-13.6,1.2
		c0,0,0,0,0,0c-2,0-4.1,0.1-6.2,0c-2.1,0-4.2,0-6.3,0c-2.1,0-4.2,0-6.3,0.1c-2,0-4.2,0.1-6.2,0.1c-4,0-9.2-0.2-13.6-1.3
		c-0.5-0.1-0.9-0.5-1.1-0.9c-1.1-2.5-1.1-8.3,0-10.8c0.2-0.6,0.8-0.9,1.4-1c5.5-0.5,11.5-0.7,19.6-0.7c3.8,0,7.6,0,11.4,0.1
		c3.7,0,7.6,0.1,11.4,0.1c2.9,0,5.5,0,7.8-0.1c0.2,0,0.3,0,0.5,0.1c0.6,0.2,1.5,0.6,2.2,1.7C928.2,292.4,927,298.3,926.6,299.7z
		 M965.6,150.9c-1.3,12-5.7,20.1-10.4,28.6c-1.4,2.6-2.9,5.2-4.3,8.1c-6.2,12.5-12,25-15.4,41.8c-1.9,9.1-2.9,14.1-8.6,17.2
		c-2.1,1.1-5.9,1.4-12.3,1.4c0,0,0,0,0,0c-2.8,0-5.7,0.1-8.5,0c-2.5-0.1-4.8,0.1-6.8,0.1c-2.3,0-4.9,0.1-7.6,0.3
		c-2.8,0.2-5.7,0.3-8.4,0.3c-5.1,0-8.8-0.6-11.5-1.9c-6.3-3-7.5-8.2-9.9-18.5l-0.5-2.1c-2.3-9.8-5.4-19.6-8.3-26.4
		c-2.4-5.7-5.3-10.9-8.1-16c-5.8-10.4-11.2-20.2-12.6-33.5c-1.4-13.6,2.2-28.8,6.3-37.1c8.3-17,28.9-36.9,59.7-36.9
		c2.5,0,5.1,0.1,7.6,0.4c17.6,1.9,34.1,10.9,45.2,24.8C962.5,115.3,967.5,132.8,965.6,150.9z"/>
	<linearGradient id="SVGID_5_" gradientUnits="userSpaceOnUse" x1="548.5" y1="716" x2="548.5" y2="385">
		<stop  offset="2.830038e-03" style="stop-color:#9385FF"/>
		<stop  offset="1" style="stop-color:#6F04C8"/>
	</linearGradient>
	<path fill="url(#SVGID_5_)" d="M679,409.6c0-13.6-11-24.6-24.6-24.6H442.6c-13.6,0-24.6,11-24.6,24.6v281.7
		c0,13.6,11,24.6,24.6,24.6h211.7c13.6,0,24.6-11,24.6-24.6V409.6z M565.4,654.6C563.2,662,555.1,665,548,665c0,0,0,0,0,0
		c-7.4,0-15.5-3.3-17.1-11.3c-0.1-0.7,0-1.2,0.5-1.7c0.4-0.5,1.1-0.7,1.7-0.7c1.4,0.1,2.9,0.1,4.7,0.1c2.3,0,4.7,0,7-0.1
		c2.3-0.1,4.7-0.1,7.1-0.1c5,0,8.7,0.3,11.8,0.9c0.6,0.1,1.1,0.4,1.4,0.9C565.4,653.5,565.5,654,565.4,654.6z M573.9,642.3
		c-0.2,0.3-0.4,0.7-0.7,0.9c-3.5,2.5-9.1,3-14,3c0,0,0,0,0,0c-2,0-4.1-0.3-6.4-0.4c-2.2-0.1-4.5-0.4-6.8-0.4c-1.4,0-3,0.1-4.7,0.1
		c-1.8,0.1-3.8,0.1-5.6,0.1c-4.6,0-9.6-0.4-12.3-3.2c-1.3-1.3-1.9-3-1.9-5.1c0.2-7.5,9.4-7.5,12.4-7.5c1.8,0,3.6-0.1,5.4,0
		c1.6,0.1,3.1,0,4.5,0H569c0.3,0,0.6,0.2,0.8,0.4c2,0.8,3.5,2.7,4.4,4.8C575.1,637.5,574.9,640.1,573.9,642.3z M583.4,618.7
		c-1.3,5.1-9.7,5.8-17.8,5.8c-3.6,0-7.5-0.2-10.9-0.3c-2.7-0.1-5.3-0.2-7.3-0.2c-1.7,0-3.6,0-5.6,0c-4.3,0-9,0-13.1,0l-1.4,0
		c-5.8,0-10.3,0-12.8-2.7c-1.2-1.3-1.8-3.1-1.6-5.4c0.5-7.5,12.6-7.5,17.2-7.5c3,0,5.9-0.1,8.4,0c1.9,0.1,3.5-0.2,4.7-0.2
		c0,0,0,0,0,0c0,0,0-0.7,0-1.1c0-2.2,0.1-4.1,0.2-6c0.1-1.4,0.1-2.6,0.1-3.4c0-3.1-0.2-6.3-0.3-9.4c-0.1-3-0.3-5.8-0.3-8.4
		c0-1,0-2,0.1-2.8c-0.9,0-1.8,0-2.7,0c-5,0-10.3-0.5-11.4-4.1c-0.7-2.4-0.5-4.3,0.6-5.8c1.9-2.6,6.1-2.9,9.5-2.9
		c1.3,0,2.5,0.1,3.7,0.1c1.1,0,2,0.1,2.9,0.1c1.2,0,2.8,0,4.6-0.1c2.1-0.1,4.5-0.1,6.7-0.1c4.2,0,6.7,0.3,8.1,0.8
		c2.8,1,5.5,3.7,4.2,7.9c-1.2,3.7-5.9,4.2-10.3,4.2c0,0,0,0,0,0c-1.2,0-2.4-0.1-3.6-0.1c0.1,1.2,0.1,2.4,0.1,3.6
		c0,2.7-0.1,5.7-0.3,8.2c-0.1,2.1-0.2,4-0.2,5.5c0,1.3-0.3,2.7-0.3,4.2c0,3.2-0.4,6.8-0.4,9.9v0.1c0,0,1,0,1.3,0
		c4-0.2,8-0.4,11.5-0.4c5.7,0,9.4,0.5,11.8,1.8C580.5,610.7,584.9,612.9,583.4,618.7z M540.1,548.1c0.9,0,1.8,0,2.6,0
		c0.8,0,1.6,0,2.4,0c1.4,0,3.2-0.1,5.1-0.1c2.3-0.1,4.8-0.2,7.1-0.2c4.1,0,6.5,0.3,8,0.9c1.7,0.7,3.1,2.1,3.8,3.7
		c0.6,1.5,0.5,2.9-0.1,4.4c-1.4,3.1-5.7,3.5-9.7,3.5c0,0,0,0,0,0c-1.5,0-3.2,0-4.8-0.1c-1.6-0.1-3-0.1-4.4-0.1
		c-1.5,0-3.1,0.1-4.8,0.1c-1.7,0.1-3.6,0.1-5.3,0.1c-3.9,0-8.1-0.3-10.3-2.6c-1-1.1-1.5-2.4-1.4-4
		C528.6,548.1,536.4,548.1,540.1,548.1z M528.3,537.6c0-0.5,0.2-0.9,0.5-1.5c0.1-0.3,0.4-0.8,0.4-1c-0.1-0.6,0.2-1.2,0.7-1.5
		c2.3-1.6,5.6-1.8,8.9-1.8c1.2,0,2.5,0,3.8,0.1c1.4,0,2.8,0.1,4.2,0.1c1.5,0,3.2-0.1,4.9-0.1c1.9-0.1,3.8-0.1,5.6-0.1
		c4.5,0,9.4,0.4,11.3,3.2c1,1.4,1.1,3.2,0.3,5.3c-1.4,3.5-6.3,4-11.5,4c-1.6,0-3.3-0.1-4.9-0.1c-1.6,0-3.2-0.1-4.8-0.1
		c-1.3,0-2.6,0-4,0.1c-1.4,0.1-2.9,0.1-4.3,0.1c-3.6,0-7.5-0.3-9.6-2.5C528.8,540.5,528.3,539.2,528.3,537.6z M592.8,587.3
		c-0.8,1.3-1.6,2.6-2.5,3.9c-0.3,0.4-0.6,0.8-1,1.5c-3,5.1-8.5,14.3-14.8,14.3c0,0,0,0,0,0c-1.3,0-2.6-0.2-3.7-0.9
		c-3.6-2.4-3.9-6.1-1-11.5c0.1-0.2,0.2-0.3,0.2-0.4c2.6-5.9,7.7-13.2,11.9-19.1c2-2.9,3.8-5.3,4.8-7c7.6-12.6,14.1-24.2,17-38.9
		c4.4-21.7,0.7-41.9-10.4-56.9c-9-12.2-22-19.7-36.7-21.2c-3.3-0.3-5.7-0.5-7.9-0.5c-2.2,0-4.5,0.1-7.5,0.5
		c-24.7,2.8-45.2,23.6-47.8,48.5c-3,29.4,5.9,47.5,17,66.4c4.2,7.2,6.1,10.2,11.5,18.7c0.4,0.7,1.2,1.6,2.1,2.7
		c3.2,4.1,7.7,9.7,6.4,14.5c-0.5,2.1-2,3.7-4.4,4.7c-1.3,0.5-2.4,0.8-3.5,0.8c-3.8,0-5.7-3-8.3-7.2c-0.3-0.5-0.7-1.1-1-1.6
		c-2.2-3.5-4.5-6.9-6.8-10.5c-15.1-22.7-32.2-48.5-28.8-87.4c3.3-37,33.6-65,70.6-65c2.4,0,4.9,0.1,7.4,0.4
		c16.1,1.6,31.6,8.8,43.6,20.2c12.1,11.6,19.6,26.6,21,42.2C623.9,538.6,608.1,563.4,592.8,587.3z"/>
	<linearGradient id="SVGID_6_" gradientUnits="userSpaceOnUse" x1="898.5" y1="716" x2="898.5" y2="385">
		<stop  offset="5.640147e-03" style="stop-color:#CCCCCC"/>
		<stop  offset="1" style="stop-color:#4D4D4D"/>
	</linearGradient>
	<path fill="url(#SVGID_6_)" d="M919,432.4v138.3c-4,0.4-8.6,0.6-14.7,0.6c-3.3,0-6.4,0-9.7-0.1c-3.3,0-6.7-0.1-10-0.1
		c-1.8,0-3.4,0-5,0c0,0,0-131.7-0.1-132.7c-0.1-2.4-0.2-5.2,0.5-5.9c0.2-0.2,0.7-0.3,1.3-0.2c1.3,0.1,2.7,0.1,2.5,4.6
		c0,0.9-0.7,108.1,2.1,113.5c0.3,0.6,0.9,1,1.6,1c1.1,0.1,1.4,0.2,2.8,0.3c3.5,0.3,7.5,0.6,11.4,0.6c6,0,8.2-0.8,10.7-2.5
		c0.5-0.3,0.8-0.9,0.8-1.5c0.9-19.7,0.8-103.8,0.9-115.7c0.3-0.1,3.7-0.6,4.6-0.5C918.9,432.3,918,432.3,919,432.4z M1029,691.4
		c0,13.6-11,24.6-24.6,24.6H792.6c-13.6,0-24.6-11-24.6-24.6V409.6c0-13.6,11-24.6,24.6-24.6h211.7c13.6,0,24.6,11,24.6,24.6V691.4z
		 M944.7,584.4c-0.3-2.7-0.5-5.5-0.6-8.2c0-0.3-0.2-0.6-0.3-0.9c-1.8-3.2-6.2-3.8-9.7-4.4c-0.2,0-0.1-0.1-1.1-0.1V426.5
		c0-0.3,0.5-0.6,0.4-0.8c-2.8-6.1-9.8-8.4-15.7-8.4c-7.8,0-14,3.2-15.9,8.3c-1.5,4.1,0,111.3,0,111.3h-4c-0.8-17,0.2-85.2,0.2-90.4
		c0-1.7,0.4-19.9-2.3-23.7c-2.5-3.6-7.5-5.6-13.6-5.6c-6.7,0-15,2.7-17.1,8.6c-2,5.4-1.7,20.6-1.1,38.3c0.2,4.6,0.1,8.5,0.1,11.1
		v95.6c-1,0.1-1.1,0.2-1.8,0.3c-2.8,0.3-5.8,0.7-7.1,3.5c-0.1,0.3-0.2,0.5-0.2,0.8c0,2.9-0.3,6-0.6,9c-0.5,5.4-1,10.6,0,14.9
		c1,4.2,5,7.6,8.5,10.5c1.3,1.1,2.4,2.1,3.4,3.1c4.9,4.9,8.3,8.8,11.2,12.5c0.2,0.2,0.1,0.4,0.3,0.5c1.9,1,3.3,1.9,6.3,3v6.7
		c-1-0.4-2.2-0.6-3.5-0.6c-1.4,0-2.4,0.3-3.6,0.7c-0.6,0.2-0.9,0.7-1.1,1.3c-0.1,0.2-0.1,0.4-0.2,0.7c-0.4,1.4-0.8,2.9-0.6,5.1
		c0.1,0.5,0,1,0.5,1.3c2.8,2,5.5,3.6,8.5,5v7.4c-1-0.4-2.2-0.6-3.5-0.6c-1.4,0-2.4,0.3-3.6,0.7c-0.6,0.2-0.9,0.7-1.1,1.3
		c-0.1,0.2-0.1,0.4-0.2,0.7c-0.4,1.4-0.8,2.9-0.6,5.1c0.1,0.5,0,1,0.5,1.3c2.8,2,5.5,3.6,8.5,5v0.9c0,7.3,6.8,11.9,14,11.9
		c0,0,0,0,0,0h0c0,0,0,0,0,0c3.9,0,7.4-1.1,9.8-3.8c2.2,0.7,4.6,1.7,7.1,1.9c0.1,0,0.1,0.1,0.2,0.1c0.5,0,0.9-0.1,1.2-0.5
		c2.3-2.2,2.7-4.2,2.3-6.2c-0.6-3-3.6-4.9-8.6-6.8v-8c1,0.3,3,0.5,4.3,0.6c0.1,0,0.5,0,0.6,0c0.5,0,1-0.2,1.3-0.5
		c2.3-2.2,2.8-4.2,2.4-6.3c-0.6-3-3.6-4.9-8.6-6.8v-6.8c1,0.2,2.1,0.3,2.8,0.3c3.1,0,5-1.7,5.7-3.1c0.9-1.8,1.1-3.5,0.4-5.1
		c-1-2.2-3.3-3.6-5.9-4.7c2.2-0.4,4.6-0.9,6.8-2.1c2.7-1.6,5.7-4.9,8.6-8.1c1.4-1.5,2.7-3,3.9-4.2c1.1-1.1,2.4-2.2,3.8-3.4
		c3.4-3,7-6.1,8.1-9.3C945.8,595.5,945.3,590.1,944.7,584.4z"/>
</g>
<g id="Layer_2">
	<g id="Designed_by_Vecteezy">
		<g>
			<g>
				<g>
					<path fill="#666666" d="M570.5,739.7c0.5,0,1,0.5,1,0.5l-8.9,19c-1,0-3.3,0.1-3.9,0.1c-0.5,0-1-0.5-1-0.5l-3-19
						c1.8,0,4.2-0.1,4.8-0.1c0.5,0,1,0.5,1,0.5l0.9,9.3c0.1,0.8,0.1,1.9,0.1,3.1c0.3-1.3,0.6-2.5,1-3.3l3.7-9.4
						C567.9,739.9,569.9,739.7,570.5,739.7L570.5,739.7z"/>
				</g>
				<g>
					<path fill="#666666" d="M579.7,749.1c0,2.1-1.2,3.4-4,4l-3,0.6c0.2,1.3,1.1,1.9,2.4,1.9c1.7,0,2.8-1.3,2.8-1.3s0.8,0.5,0.8,1.4
						c0,1.7-2.6,3.6-5.7,3.6c-3.1,0-5.2-2-5.2-5.3c0-3.8,2.7-9.1,7.6-9.1C578.1,745.1,579.7,746.7,579.7,749.1L579.7,749.1z
						 M574.6,751.1c0.6-0.2,0.8-0.7,0.8-1.3c0-0.6-0.2-1.4-0.9-1.4c-1.2,0-1.7,1.9-1.9,3.4L574.6,751.1z"/>
				</g>
				<g>
					<path fill="#666666" d="M587.9,745.1c2.4,0,4.3,1.3,4.3,3c0,2.1-2.6,2.9-2.6,2.9s-0.7-2.3-2.5-2.3c-1.2,0-1.8,1.2-1.8,3.7
						c0,2.3,0.6,3.3,2.1,3.3c1.5,0,2.5-1,2.5-1s0.9,0.5,0.9,1.4c0,1.7-2.5,3.4-5.5,3.4c-3.2,0-5.1-2-5.1-5.3
						C580.1,750.3,582.9,745.1,587.9,745.1L587.9,745.1z"/>
				</g>
				<g>
					<path fill="#666666" d="M599.6,742c0.6,0,1,0.5,1,0.5l-0.5,2.9h3.1l-0.7,2.2c-0.2,0.7-0.6,1.1-1.3,1.1h-1.6l-0.9,5.7
						c-0.1,0.9,0.1,1.3,0.7,1.3c0.6,0,1.1-0.3,1.1-0.3s0.9,0.5,0.9,1.4c0,1.4-2,2.8-4.5,2.8c-2.6,0-3.7-1.6-3.3-4.5l1-6.3H593
						l0.7-2.3c0.2-0.6,0.7-1,1.3-1h0.8l1-2.7C598,742.4,599.1,742,599.6,742L599.6,742z"/>
				</g>
				<g>
					<path fill="#666666" d="M614.5,749.1c0,2.1-1.2,3.4-4,4l-3,0.6c0.2,1.3,1.1,1.9,2.4,1.9c1.7,0,2.8-1.3,2.8-1.3s0.9,0.5,0.9,1.4
						c0,1.7-2.6,3.6-5.7,3.6c-3.1,0-5.2-2-5.2-5.3c0-3.8,2.7-9.1,7.6-9.1C612.9,745.1,614.5,746.7,614.5,749.1L614.5,749.1z
						 M609.4,751.1c0.6-0.2,0.8-0.7,0.8-1.3c0-0.6-0.2-1.4-0.9-1.4c-1.2,0-1.7,1.9-1.9,3.4L609.4,751.1z"/>
				</g>
				<g>
					<path fill="#666666" d="M626.9,749.1c0,2.1-1.2,3.4-4,4l-3,0.6c0.2,1.3,1.1,1.9,2.4,1.9c1.7,0,2.8-1.3,2.8-1.3s0.9,0.5,0.9,1.4
						c0,1.7-2.6,3.6-5.7,3.6c-3.1,0-5.2-2-5.2-5.3c0-3.8,2.7-9.1,7.6-9.1C625.2,745.1,626.9,746.7,626.9,749.1L626.9,749.1z
						 M621.8,751.1c0.6-0.2,0.8-0.7,0.8-1.3c0-0.6-0.2-1.4-0.9-1.4c-1.2,0-1.7,1.9-1.9,3.4L621.8,751.1z"/>
				</g>
				<g>
					<path fill="#666666" d="M637,754.3c0,0,1,1,1,2.5c0,2.1-1.8,2.7-3.3,2.7c-2,0-3.4-0.9-4.9-1.4c-0.4,0.5-0.8,1-1.2,1.4
						c0,0-2.2-0.1-2.2-1.6c0-1.8,3.1-5,6.4-8.5c-0.4-0.1-0.7-0.1-1.1-0.1c-1.9,0-2.6,0.9-2.6,0.9s-1-1.1-0.9-2.5
						c0.1-2,2-2.5,3.5-2.5c1.6,0,2.7,0.6,3.9,1.1l0.9-1.1c0,0,2.2,0.1,2.2,1.6c0,1.8-3,4.9-6.2,8.3c0.7,0.2,1.3,0.3,1.9,0.3
						C636.2,755.3,637,754.3,637,754.3L637,754.3z"/>
				</g>
				<g>
					<path fill="#666666" d="M651.3,758.3c-0.8,4.8-4.1,7.3-8.3,7.3c-2.7,0-4.7-1.4-4.7-3c0-1.1,0.9-1.6,0.9-1.6s0.9,0.8,2.7,0.8
						c1.7,0,4-0.7,4.4-3.3l0.3-2c-1.1,1.6-2.6,3-4.5,3c-2.1,0-3.1-1.7-2.5-5.3l0.6-3.8c0.4-2.3,0.5-4.3,0.5-4.3c1.5-0.3,3.5-1,4.2-1
						c0.5,0,1,0.5,1,0.5l-0.8,4.8l-0.7,4.4c-0.1,0.4,0,0.6,0.4,0.6c1.8,0,2.8-5.1,2.8-5.1c0.4-2.3,0.5-4.3,0.5-4.3
						c1.5-0.3,3.5-1,4.2-1c0.5,0,1,0.5,1,0.5l-0.8,4.8L651.3,758.3z"/>
				</g>
			</g>
			<g>
				<path fill="#666666" d="M446.6,745.9h4.8c1.1,0,1.9,0.1,2.5,0.2c0.8,0.2,1.4,0.6,1.9,1.2c0.5,0.6,0.9,1.3,1.2,2.1
					c0.3,0.8,0.4,1.8,0.4,3c0,1.1-0.1,2-0.4,2.7c-0.3,0.9-0.8,1.7-1.4,2.3c-0.5,0.4-1.1,0.8-1.8,1c-0.6,0.2-1.3,0.3-2.3,0.3h-4.9
					V745.9z M449.2,748.1v8.5h1.9c0.7,0,1.3,0,1.6-0.1c0.4-0.1,0.8-0.3,1.1-0.5c0.3-0.3,0.5-0.7,0.7-1.2c0.2-0.6,0.3-1.4,0.3-2.4
					c0-1-0.1-1.8-0.3-2.3s-0.4-0.9-0.7-1.2c-0.3-0.3-0.7-0.5-1.2-0.6c-0.4-0.1-1.1-0.1-2.1-0.1H449.2z"/>
				<path fill="#666666" d="M464.6,755.8l2.5,0.4c-0.3,0.9-0.8,1.6-1.5,2.1c-0.7,0.5-1.5,0.7-2.6,0.7c-1.6,0-2.8-0.5-3.6-1.6
					c-0.6-0.8-0.9-1.9-0.9-3.2c0-1.5,0.4-2.8,1.2-3.6c0.8-0.9,1.8-1.3,3.1-1.3c1.4,0,2.5,0.5,3.3,1.4c0.8,0.9,1.2,2.3,1.2,4.2H461
					c0,0.7,0.2,1.3,0.6,1.7c0.4,0.4,0.9,0.6,1.4,0.6c0.4,0,0.7-0.1,1-0.3C464.3,756.6,464.5,756.3,464.6,755.8z M464.7,753.3
					c0-0.7-0.2-1.3-0.6-1.6c-0.4-0.4-0.8-0.6-1.3-0.6c-0.5,0-1,0.2-1.3,0.6c-0.4,0.4-0.5,0.9-0.5,1.6H464.7z"/>
				<path fill="#666666" d="M468,756.1l2.5-0.4c0.1,0.5,0.3,0.8,0.6,1.1c0.3,0.2,0.8,0.4,1.4,0.4c0.6,0,1.1-0.1,1.4-0.4
					c0.2-0.2,0.3-0.4,0.3-0.7c0-0.2-0.1-0.3-0.2-0.5c-0.1-0.1-0.4-0.2-0.8-0.3c-2-0.4-3.3-0.8-3.8-1.2c-0.7-0.5-1.1-1.2-1.1-2.1
					c0-0.8,0.3-1.5,1-2c0.6-0.6,1.6-0.8,3-0.8c1.3,0,2.2,0.2,2.8,0.6c0.6,0.4,1,1,1.3,1.8l-2.3,0.4c-0.1-0.4-0.3-0.6-0.6-0.8
					c-0.3-0.2-0.7-0.3-1.2-0.3c-0.7,0-1.1,0.1-1.4,0.3c-0.2,0.1-0.3,0.3-0.3,0.5c0,0.2,0.1,0.3,0.2,0.4c0.2,0.2,1,0.4,2.3,0.7
					c1.3,0.3,2.2,0.7,2.8,1.1c0.5,0.4,0.8,1.1,0.8,1.8c0,0.9-0.4,1.6-1.1,2.2c-0.7,0.6-1.8,0.9-3.2,0.9c-1.3,0-2.3-0.3-3-0.8
					C468.7,757.7,468.2,757,468,756.1z"/>
				<path fill="#666666" d="M478.5,748.2v-2.3h2.5v2.3H478.5z M478.5,758.8v-9.3h2.5v9.3H478.5z"/>
				<path fill="#666666" d="M482.9,759.4l2.8,0.3c0,0.3,0.2,0.6,0.3,0.7c0.2,0.2,0.6,0.3,1.1,0.3c0.6,0,1.1-0.1,1.5-0.3
					c0.2-0.1,0.4-0.3,0.5-0.6c0.1-0.2,0.1-0.6,0.1-1.1v-1.4c-0.7,1-1.7,1.5-2.8,1.5c-1.3,0-2.2-0.5-3-1.6c-0.6-0.8-0.9-1.9-0.9-3.1
					c0-1.6,0.4-2.8,1.1-3.6c0.8-0.8,1.7-1.2,2.8-1.2c1.2,0,2.1,0.5,2.9,1.5v-1.3h2.3v8.4c0,1.1-0.1,1.9-0.3,2.5
					c-0.2,0.5-0.4,1-0.8,1.3c-0.3,0.3-0.8,0.6-1.3,0.7c-0.5,0.2-1.2,0.3-2.1,0.3c-1.6,0-2.7-0.3-3.4-0.8c-0.7-0.5-1-1.2-1-2.1
					C482.9,759.6,482.9,759.5,482.9,759.4z M485.1,753.9c0,1,0.2,1.7,0.6,2.2c0.4,0.5,0.9,0.7,1.4,0.7c0.6,0,1.1-0.2,1.5-0.7
					c0.4-0.5,0.6-1.2,0.6-2.1c0-1-0.2-1.7-0.6-2.2c-0.4-0.5-0.9-0.7-1.5-0.7c-0.6,0-1.1,0.2-1.5,0.7
					C485.3,752.3,485.1,753,485.1,753.9z"/>
				<path fill="#666666" d="M502.2,758.8h-2.5V754c0-1-0.1-1.7-0.2-2c-0.1-0.3-0.3-0.5-0.5-0.7c-0.2-0.2-0.5-0.2-0.9-0.2
					c-0.4,0-0.8,0.1-1.2,0.4c-0.3,0.2-0.6,0.5-0.7,0.9c-0.1,0.4-0.2,1.1-0.2,2.1v4.2h-2.5v-9.3h2.3v1.4c0.8-1.1,1.8-1.6,3.1-1.6
					c0.5,0,1,0.1,1.5,0.3c0.5,0.2,0.8,0.4,1,0.8c0.2,0.3,0.4,0.7,0.5,1c0.1,0.4,0.1,0.9,0.1,1.7V758.8z"/>
				<path fill="#666666" d="M509.8,755.8l2.5,0.4c-0.3,0.9-0.8,1.6-1.5,2.1c-0.7,0.5-1.5,0.7-2.6,0.7c-1.6,0-2.8-0.5-3.6-1.6
					c-0.6-0.8-0.9-1.9-0.9-3.2c0-1.5,0.4-2.8,1.2-3.6c0.8-0.9,1.8-1.3,3.1-1.3c1.4,0,2.5,0.5,3.3,1.4c0.8,0.9,1.2,2.3,1.2,4.2h-6.2
					c0,0.7,0.2,1.3,0.6,1.7c0.4,0.4,0.9,0.6,1.4,0.6c0.4,0,0.7-0.1,1-0.3C509.5,756.6,509.7,756.3,509.8,755.8z M509.9,753.3
					c0-0.7-0.2-1.3-0.6-1.6c-0.4-0.4-0.8-0.6-1.3-0.6c-0.5,0-1,0.2-1.3,0.6c-0.4,0.4-0.5,0.9-0.5,1.6H509.9z"/>
				<path fill="#666666" d="M522.6,758.8h-2.3v-1.4c-0.4,0.5-0.8,0.9-1.3,1.2c-0.5,0.3-1,0.4-1.6,0.4c-1.1,0-2-0.4-2.8-1.3
					c-0.8-0.9-1.1-2.1-1.1-3.6c0-1.6,0.4-2.8,1.1-3.6c0.7-0.8,1.7-1.2,2.8-1.2c1,0,1.9,0.4,2.7,1.3v-4.6h2.5V758.8z M516,753.9
					c0,1,0.1,1.7,0.4,2.2c0.4,0.6,1,1,1.7,1c0.6,0,1.1-0.2,1.5-0.7c0.4-0.5,0.6-1.2,0.6-2.2c0-1.1-0.2-1.8-0.6-2.3
					c-0.4-0.5-0.9-0.7-1.5-0.7c-0.6,0-1.1,0.2-1.5,0.7C516.2,752.3,516,753,516,753.9z"/>
				<path fill="#666666" d="M529.2,758.8v-12.9h2.5v4.6c0.8-0.9,1.7-1.3,2.7-1.3c1.1,0,2.1,0.4,2.8,1.2c0.7,0.8,1.1,2,1.1,3.5
					c0,1.6-0.4,2.8-1.1,3.7c-0.8,0.9-1.7,1.3-2.8,1.3c-0.5,0-1.1-0.1-1.6-0.4c-0.5-0.3-1-0.7-1.3-1.2v1.4H529.2z M531.7,753.9
					c0,1,0.2,1.7,0.5,2.1c0.4,0.7,1,1,1.7,1c0.5,0,1-0.2,1.4-0.7c0.4-0.5,0.6-1.2,0.6-2.2c0-1.1-0.2-1.8-0.6-2.3
					c-0.4-0.5-0.9-0.7-1.5-0.7c-0.6,0-1.1,0.2-1.5,0.7C531.9,752.3,531.7,753,531.7,753.9z"/>
				<path fill="#666666" d="M538.8,749.4h2.6l2.2,6.6l2.2-6.6h2.6l-3.3,9l-0.6,1.6c-0.2,0.5-0.4,1-0.6,1.2c-0.2,0.3-0.4,0.5-0.7,0.7
					c-0.3,0.2-0.6,0.3-0.9,0.4c-0.4,0.1-0.8,0.1-1.3,0.1c-0.5,0-0.9,0-1.4-0.1l-0.2-1.9c0.4,0.1,0.7,0.1,1,0.1c0.6,0,1-0.2,1.3-0.5
					c0.3-0.3,0.5-0.8,0.6-1.3L538.8,749.4z"/>
			</g>
		</g>
	</g>
</g>
</svg>
